<?xml version="1.0" encoding="UTF-8"?>
<!DOCTYPE svg PUBLIC "-//W3C//DTD SVG 1.1//EN" "http://www.w3.org/Graphics/SVG/1.1/DTD/svg11.dtd">
<!-- Creator: CorelDRAW 2019 (64-Bit) -->
<svg xmlns="http://www.w3.org/2000/svg" xml:space="preserve" width="2.1056mm" height="2.1056mm" version="1.1" style="shape-rendering:geometricPrecision; text-rendering:geometricPrecision; image-rendering:optimizeQuality; fill-rule:evenodd; clip-rule:evenodd"
viewBox="0 0 8.17 8.17"
 xmlns:xlink="http://www.w3.org/1999/xlink"
 xmlns:xodm="http://www.corel.com/coreldraw/odm/2003">
 <defs>
  <style type="text/css">
   <![CDATA[
    .fil0 {fill:#A8CF45}
   ]]>
  </style>
 </defs>
 <g id="Capa_x0020_1">
  <metadata id="CorelCorpID_0Corel-Layer"/>
  <path class="fil0" d="M3.11 0.91l0 2.2 -2.2 0c-0.47,0 -0.91,0.48 -0.91,0.89 0,0.31 0.05,0.54 0.28,0.77 0.13,0.13 0.37,0.28 0.63,0.28l2.2 0 0 2.2c0,0.46 0.46,0.91 0.91,0.91 0.32,0 0.53,-0.06 0.75,-0.28 0.13,-0.13 0.28,-0.37 0.28,-0.63l0 -2.2 2.2 0c0.46,0 0.91,-0.45 0.91,-0.91 0,-0.32 -0.06,-0.53 -0.28,-0.75 -0.13,-0.13 -0.37,-0.28 -0.63,-0.28l-2.2 0 0 -2.2c0,-0.47 -0.48,-0.91 -0.89,-0.91l-0.01 0c-0.19,0 -0.33,0 -0.5,0.1 -0.28,0.15 -0.54,0.46 -0.54,0.81z"/>
 </g>
</svg>
