<?xml version="1.0" encoding="UTF-8"?>
<!DOCTYPE svg PUBLIC "-//W3C//DTD SVG 1.1//EN" "http://www.w3.org/Graphics/SVG/1.1/DTD/svg11.dtd">
<!-- Creator: CorelDRAW 2019 (64-Bit) -->
<svg xmlns="http://www.w3.org/2000/svg" xml:space="preserve" width="4.7795mm" height="4.7795mm" version="1.1" style="shape-rendering:geometricPrecision; text-rendering:geometricPrecision; image-rendering:optimizeQuality; fill-rule:evenodd; clip-rule:evenodd"
viewBox="0 0 63.75 63.75"
 xmlns:xlink="http://www.w3.org/1999/xlink"
 xmlns:xodm="http://www.corel.com/coreldraw/odm/2003">
 <defs>
  <style type="text/css">
   <![CDATA[
    .fil0 {fill:#A8CF45}
   ]]>
  </style>
 </defs>
 <g id="Capa_x0020_1">
  <metadata id="CorelCorpID_0Corel-Layer"/>
  <g id="_1856453002800">
   <path class="fil0" d="M13.07 2.12l0 2.86c-4.02,0 -6.97,-0.32 -10.18,2.89 -1.38,1.38 -2.89,3.88 -2.89,6.57l0 39.84c0,4.87 4.6,9.46 9.46,9.46l44.82 0c4.85,0 9.46,-4.61 9.46,-9.46l0 -0.87c0,-0.91 -1.2,-2.12 -2.12,-2.12 -3.71,0 -2.42,2.87 -3.44,4.78 -0.85,1.57 -2.4,2.7 -4.78,2.7l-43.08 0c-2.15,0 -4.12,-1.04 -4.93,-3.04 -0.27,-0.66 -0.42,-1.44 -0.42,-2.32l0 -38.1c0,-0.86 0.15,-1.59 0.39,-2.23 1.35,-3.55 5.02,-3.13 7.71,-3.13l0 2.86c0,0.91 1.2,2.12 2.12,2.12l0.75 0c0.91,0 2.12,-1.2 2.12,-2.12l0 -2.86 11.21 0 0 2.86c0,0.91 1.2,2.12 2.12,2.12l0.75 0c0.91,0 2.12,-1.2 2.12,-2.12l0 -2.86 11.33 0 0 2.86c0,0.91 1.2,2.12 2.12,2.12l0.75 0c0.91,0 2.12,-1.2 2.12,-2.12l0 -2.86 2.86 0c3.1,0 5.21,2.04 5.36,4.98 0.16,3.27 -0,7.01 -0,10.34l0 15.44c-0.01,1.11 -0.02,1.48 0.47,2.14 1.47,1.97 4.51,0.68 4.51,-1.14l0 -27.27c0,-4.87 -4.6,-9.46 -9.46,-9.46l-3.73 0 0 -2.86c0,-0.91 -1.2,-2.12 -2.12,-2.12l-0.75 0c-0.91,0 -2.12,1.2 -2.12,2.12l0 2.86 -11.33 0 0 -2.86c0,-0.91 -1.2,-2.12 -2.12,-2.12l-0.75 0c-0.91,0 -2.12,1.2 -2.12,2.12l0 2.86 -11.21 0 0 -2.86c0,-0.91 -1.2,-2.12 -2.12,-2.12l-0.75 0c-0.91,0 -2.12,1.2 -2.12,2.12z"/>
   <path class="fil0" d="M16.19 28.76l0 0.75c0,0.91 1.2,2.12 2.12,2.12 2.77,0 2,-1.44 3.69,-2.16 3.39,-1.44 6.81,2.7 2.73,4.98 -1.01,0.57 -2.07,0.56 -2.07,2.91 0,1.62 2.22,2.17 2.79,2.56 1.38,0.94 1.5,2.02 0.5,3.47 -0.7,1.02 -2.57,1.46 -3.8,0.82 -0.76,-0.39 -0.91,-0.67 -1.41,-1.33 -1.64,-2.15 -4.56,-0.66 -4.56,1.07l0 0.75c0,1.59 3.55,4.86 6.85,4.86 2.64,0 4.49,-0.64 6.13,-2.21 1.67,-1.6 2.46,-3.54 2.46,-6.14 0,-1.66 -1.02,-3.58 -1.99,-4.23 0.43,-0.64 0.81,-0.87 1.33,-1.91 2.41,-4.81 -1.84,-10.92 -6.81,-10.92 -2.26,0 -3.62,0.14 -5.46,1.39 -0.8,0.55 -2.51,2.15 -2.51,3.22z"/>
   <path class="fil0" d="M36.86 30.13l0 0.75c0,0.91 1.2,2.12 2.12,2.12 2.29,0 1.76,-0.83 2.86,-1.12l-0 14.82c-0.01,1 0.07,1.39 0.53,1.96 1.52,1.88 4.45,0.57 4.45,-1.21l0 -21.17c0,-0.85 -1.03,-2.12 -2.36,-2.12 -1.19,0 -1.44,0.29 -2.56,1.17l-4.5 3.59c-0.2,0.25 -0.53,0.82 -0.53,1.21z"/>
  </g>
 </g>
</svg>
