<?xml version="1.0" encoding="UTF-8"?>
<!DOCTYPE svg PUBLIC "-//W3C//DTD SVG 1.1//EN" "http://www.w3.org/Graphics/SVG/1.1/DTD/svg11.dtd">
<!-- Creator: CorelDRAW 2019 (64-Bit) -->
<svg xmlns="http://www.w3.org/2000/svg" xml:space="preserve" width="12.4144mm" height="10.2017mm" version="1.1" style="shape-rendering:geometricPrecision; text-rendering:geometricPrecision; image-rendering:optimizeQuality; fill-rule:evenodd; clip-rule:evenodd"
viewBox="0 0 64.87 53.31"
 xmlns:xlink="http://www.w3.org/1999/xlink"
 xmlns:xodm="http://www.corel.com/coreldraw/odm/2003">
 <defs>
  <style type="text/css">
   <![CDATA[
    .fil0 {fill:#A8CF45}
   ]]>
  </style>
 </defs>
 <g id="Capa_x0020_1">
  <metadata id="CorelCorpID_0Corel-Layer"/>
  <g id="_1856462091728">
   <path class="fil0" d="M29.62 42.43c1.43,-3.54 2.79,-7.89 4.23,-11.5 0.25,-0.62 0.48,-1.29 0.71,-1.93 0.22,-0.64 0.5,-1.26 0.69,-1.94 0.55,0.14 4,0.27 4.85,0.1 0.83,-0.17 1.19,-1.33 1.53,-2.2 0.23,-0.57 0.87,-2.16 1.22,-2.52 0.67,0.02 1.22,0.13 1.94,0.18 0.64,0.04 1.39,0.17 2.03,0.21l12.23 1.21c-0.02,0.02 -0.07,0.02 -0.07,0.07l-0.79 0.51c-5.63,3.41 -11.79,7.44 -17.46,10.94 -1.23,0.76 -2.46,1.51 -3.65,2.29l-7.46 4.59zm-13.87 -16.3c0.42,0.1 1.52,0.09 1.98,0.11 4.57,0.18 9.67,0.56 14.19,0.67 -0.48,1.64 -2.15,5.91 -2.84,7.85 -0.25,0.69 -0.48,1.23 -0.73,1.92l-1.83 4.97c-0.13,0.4 -0.2,0.69 -0.45,0.96 -0.46,-0.55 -0.87,-1.33 -1.31,-2.02l-9.02 -14.47zm34.84 -21.59c0.34,0.74 0.85,1.45 1.25,2.1 1.28,2.08 8.75,13.75 8.94,14.41 -0.5,-0.12 -1.5,-0.21 -2.01,-0.24l-14.61 -1.41c0.02,-0.61 1.16,-2.99 1.46,-3.73l4.02 -9.36c0.15,-0.37 0.24,-0.54 0.39,-0.89 0.18,-0.42 0.14,-0.67 0.57,-0.89zm-4 0.69c-0.29,1.02 -1.02,2.46 -1.45,3.5l-1.48 3.48c-0.34,0.82 -0.65,1.62 -1.02,2.42l-4.01 9.37c-0.58,0.11 -1.89,-0.04 -2.58,-0.07l-17.94 -1.05c0.51,-0.15 6.48,-3.97 7.11,-4.36l3.56 -2.23c1.21,-0.79 2.33,-1.45 3.55,-2.24 1.19,-0.77 2.3,-1.45 3.47,-2.18l7.15 -4.45c0.81,-0.48 2.92,-1.98 3.63,-2.19zm0 0l0 0zm-34.75 20.05c0.36,1.75 2.58,4.73 3.58,6.38l7.25 11.6c1.33,2.06 2.32,4.54 4.91,4 0.99,-0.21 1.85,-0.93 2.59,-1.38l7.24 -4.51c3.27,-2.01 6.4,-4.07 9.7,-6.09 0.01,-0.01 16.24,-10.04 16.86,-10.65 2.26,-2.19 -0.36,-5.08 -1.53,-7.03l-7.32 -11.66c-0.87,-1.43 -2.67,-4.74 -3.84,-5.47 -1.56,-0.99 -2.81,-0.33 -4.23,0.6l-9.71 6.08c-0.61,0.38 -1.3,0.83 -1.96,1.23 -4.14,2.56 -9.48,6.11 -13.55,8.48l-7.75 4.85c-0.9,0.55 -1.53,0.93 -1.97,1.8 -0.14,0.27 -0.13,0.23 -0.22,0.54 -0.11,0.38 -0.16,0.75 -0.06,1.21z"/>
   <path class="fil0" d="M9.79 51.94c0.29,1.4 1.54,1.55 2.22,1.24l4.67 -2.89c1.14,-0.67 1.66,-1.06 1.4,-2.28 -0.21,-1.03 -1.34,-1.34 -2.16,-0.97l-4.67 2.89c-0.76,0.46 -1.67,0.98 -1.46,2.01z"/>
   <path class="fil0" d="M1.15 38.27c0.22,1.07 1.01,1.45 2.05,1.23l3.85 -2.39c1.13,-1.09 0.14,-2.99 -1.45,-2.66 -0.49,0.1 -2.18,1.24 -2.67,1.56 -0.85,0.56 -2.03,1.04 -1.78,2.26z"/>
   <path class="fil0" d="M0.03 50.1c0.68,3.25 5.01,-0.56 5.15,-0.73 0.95,-1.14 0.03,-2.83 -1.54,-2.5 -0.58,0.12 -2.95,1.62 -3.27,1.97 -0.25,0.27 -0.43,0.81 -0.34,1.26z"/>
  </g>
 </g>
</svg>
