<?xml version="1.0" encoding="UTF-8"?>
<!DOCTYPE svg PUBLIC "-//W3C//DTD SVG 1.1//EN" "http://www.w3.org/Graphics/SVG/1.1/DTD/svg11.dtd">
<!-- Creator: CorelDRAW 2019 (64-Bit) -->
<svg xmlns="http://www.w3.org/2000/svg" xml:space="preserve" width="5.7676mm" height="4.7395mm" version="1.1" style="shape-rendering:geometricPrecision; text-rendering:geometricPrecision; image-rendering:optimizeQuality; fill-rule:evenodd; clip-rule:evenodd"
viewBox="0 0 12.5 10.27"
 xmlns:xlink="http://www.w3.org/1999/xlink"
 xmlns:xodm="http://www.corel.com/coreldraw/odm/2003">
 <defs>
  <style type="text/css">
   <![CDATA[
    .fil0 {fill:#FEFEFE}
   ]]>
  </style>
 </defs>
 <g id="Capa_x0020_1">
  <metadata id="CorelCorpID_0Corel-Layer"/>
  <g id="_1856471323520">
   <path class="fil0" d="M5.71 8.17c0.28,-0.68 0.54,-1.52 0.82,-2.22 0.05,-0.12 0.09,-0.25 0.14,-0.37 0.04,-0.12 0.1,-0.24 0.13,-0.37 0.11,0.03 0.77,0.05 0.93,0.02 0.16,-0.03 0.23,-0.26 0.29,-0.42 0.04,-0.11 0.17,-0.42 0.23,-0.48 0.13,0 0.23,0.03 0.37,0.03 0.12,0.01 0.27,0.03 0.39,0.04l2.36 0.23c-0,0 -0.01,0 -0.01,0.01l-0.15 0.1c-1.08,0.66 -2.27,1.43 -3.36,2.11 -0.24,0.15 -0.47,0.29 -0.7,0.44l-1.44 0.88zm-2.67 -3.14c0.08,0.02 0.29,0.02 0.38,0.02 0.88,0.04 1.86,0.11 2.73,0.13 -0.09,0.32 -0.41,1.14 -0.55,1.51 -0.05,0.13 -0.09,0.24 -0.14,0.37l-0.35 0.96c-0.03,0.08 -0.04,0.13 -0.09,0.19 -0.09,-0.11 -0.17,-0.26 -0.25,-0.39l-1.74 -2.79zm6.71 -4.16c0.07,0.14 0.16,0.28 0.24,0.4 0.25,0.4 1.69,2.65 1.72,2.78 -0.1,-0.02 -0.29,-0.04 -0.39,-0.05l-2.81 -0.27c0,-0.12 0.22,-0.58 0.28,-0.72l0.77 -1.8c0.03,-0.07 0.05,-0.1 0.08,-0.17 0.03,-0.08 0.03,-0.13 0.11,-0.17zm-0.77 0.13c-0.06,0.2 -0.2,0.47 -0.28,0.67l-0.29 0.67c-0.07,0.16 -0.13,0.31 -0.2,0.47l-0.77 1.8c-0.11,0.02 -0.36,-0.01 -0.5,-0.01l-3.45 -0.2c0.1,-0.03 1.25,-0.76 1.37,-0.84l0.69 -0.43c0.23,-0.15 0.45,-0.28 0.68,-0.43 0.23,-0.15 0.44,-0.28 0.67,-0.42l1.38 -0.86c0.16,-0.09 0.56,-0.38 0.7,-0.42zm0 0l0 0zm-6.69 3.86c0.07,0.34 0.5,0.91 0.69,1.23l1.4 2.23c0.26,0.4 0.45,0.88 0.95,0.77 0.19,-0.04 0.36,-0.18 0.5,-0.27l1.39 -0.87c0.63,-0.39 1.23,-0.78 1.87,-1.17 0,-0 3.13,-1.93 3.25,-2.05 0.43,-0.42 -0.07,-0.98 -0.29,-1.35l-1.41 -2.25c-0.17,-0.27 -0.51,-0.91 -0.74,-1.05 -0.3,-0.19 -0.54,-0.06 -0.82,0.12l-1.87 1.17c-0.12,0.07 -0.25,0.16 -0.38,0.24 -0.8,0.49 -1.83,1.18 -2.61,1.63l-1.49 0.94c-0.17,0.11 -0.29,0.18 -0.38,0.35 -0.03,0.05 -0.02,0.04 -0.04,0.1 -0.02,0.07 -0.03,0.14 -0.01,0.23z"/>
   <path class="fil0" d="M1.89 10c0.06,0.27 0.3,0.3 0.43,0.24l0.9 -0.56c0.22,-0.13 0.32,-0.2 0.27,-0.44 -0.04,-0.2 -0.26,-0.26 -0.42,-0.19l-0.9 0.56c-0.15,0.09 -0.32,0.19 -0.28,0.39z"/>
   <path class="fil0" d="M0.22 7.37c0.04,0.21 0.19,0.28 0.39,0.24l0.74 -0.46c0.22,-0.21 0.03,-0.58 -0.28,-0.51 -0.09,0.02 -0.42,0.24 -0.51,0.3 -0.16,0.11 -0.39,0.2 -0.34,0.44z"/>
   <path class="fil0" d="M0 9.65c0.13,0.63 0.96,-0.11 0.99,-0.14 0.18,-0.22 0.01,-0.54 -0.3,-0.48 -0.11,0.02 -0.57,0.31 -0.63,0.38 -0.05,0.05 -0.08,0.16 -0.07,0.24z"/>
  </g>
 </g>
</svg>
