<?xml version="1.0" encoding="UTF-8"?>
<!DOCTYPE svg PUBLIC "-//W3C//DTD SVG 1.1//EN" "http://www.w3.org/Graphics/SVG/1.1/DTD/svg11.dtd">
<!-- Creator: CorelDRAW 2019 (64-Bit) -->
<svg xmlns="http://www.w3.org/2000/svg" xml:space="preserve" width="6.8411mm" height="5.3713mm" version="1.1" style="shape-rendering:geometricPrecision; text-rendering:geometricPrecision; image-rendering:optimizeQuality; fill-rule:evenodd; clip-rule:evenodd"
viewBox="0 0 25.42 19.96"
 xmlns:xlink="http://www.w3.org/1999/xlink"
 xmlns:xodm="http://www.corel.com/coreldraw/odm/2003">
 <defs>
  <style type="text/css">
   <![CDATA[
    .fil0 {fill:#A8CF45}
   ]]>
  </style>
 </defs>
 <g id="Capa_x0020_1">
  <metadata id="CorelCorpID_0Corel-Layer"/>
  <g id="_1856415570896">
   <path class="fil0" d="M1.99 19.96l21.45 0c0.81,0 1.83,-0.92 1.97,-1.9 0,-0.03 0.01,-0.13 0.01,-0.29l0 -11.32c-0.23,0.15 -0.42,0.42 -0.67,0.62 -1.21,0.95 -2.51,1.81 -3.79,2.66 -0.26,0.17 -0.49,0.34 -0.76,0.53 -0.15,0.1 -0.25,0.17 -0.38,0.27 -1.07,0.76 -3.73,2.69 -4.57,3.18 -1.17,0.68 -2.4,1.03 -3.72,0.59 -0.32,-0.11 -0.61,-0.23 -0.92,-0.37l-0.83 -0.46c-0.26,-0.18 -0.5,-0.35 -0.75,-0.54 -0.26,-0.19 -0.49,-0.34 -0.76,-0.53l-5.32 -3.71c-0.9,-0.6 -1.43,-0.95 -2.27,-1.61 -0.26,-0.2 -0.44,-0.46 -0.67,-0.62l0 11.32c0,0.16 0.01,0.26 0.01,0.29 0.14,0.98 1.16,1.9 1.97,1.9z"/>
   <path class="fil0" d="M-0 2.28c0,1.47 0.65,2.13 1.5,3.07 0.02,0.03 0.04,0.05 0.07,0.08l7.36 5.25c1.06,0.7 2.52,2.03 3.88,2.03 1.12,0 3.44,-1.87 4.5,-2.6l0.85 -0.59c0.16,-0.1 0.27,-0.19 0.41,-0.29l4.65 -3.24c0.85,-0.64 2.2,-2.09 2.2,-3.51 0,-1.03 -0.3,-1.69 -1.2,-2.23 -0.16,-0.1 -0.55,-0.26 -0.79,-0.26l-21.45 0c-0.91,0 -1.47,0.68 -1.79,1.39 -0.07,0.17 -0.2,0.65 -0.2,0.89z"/>
  </g>
 </g>
</svg>
