<?xml version="1.0" encoding="UTF-8"?>
<!DOCTYPE svg PUBLIC "-//W3C//DTD SVG 1.1//EN" "http://www.w3.org/Graphics/SVG/1.1/DTD/svg11.dtd">
<!-- Creator: CorelDRAW 2019 (64-Bit) -->
<svg xmlns="http://www.w3.org/2000/svg" xml:space="preserve" width="2.7763mm" height="3.629mm" version="1.1" style="shape-rendering:geometricPrecision; text-rendering:geometricPrecision; image-rendering:optimizeQuality; fill-rule:evenodd; clip-rule:evenodd"
viewBox="0 0 3.5 4.58"
 xmlns:xlink="http://www.w3.org/1999/xlink"
 xmlns:xodm="http://www.corel.com/coreldraw/odm/2003">
 <defs>
  <style type="text/css">
   <![CDATA[
    .fil0 {fill:#A8CF45}
   ]]>
  </style>
 </defs>
 <g id="Capa_x0020_1">
  <metadata id="CorelCorpID_0Corel-Layer"/>
  <path class="fil0" d="M1.43 1.22c0,-0.75 0.92,-1.15 1.46,-0.61 0.43,0.43 0.27,1.16 -0.25,1.39 -0.46,0.2 -0.95,-0.02 -1.13,-0.43 -0.04,-0.09 -0.08,-0.22 -0.08,-0.35zm-0.36 -0.06c0,0.19 0.01,0.37 0.1,0.54 0.07,0.14 0.09,0.19 0.2,0.33 0.05,0.06 0.12,0.12 0.19,0.17 -0.07,0.02 -0.22,0.09 -0.29,0.12 -0.18,0.09 -0.29,0.16 -0.45,0.29l-0.17 0.15c-0.12,0.12 -0.28,0.33 -0.37,0.47 -0.15,0.27 -0.38,0.74 -0.23,1.05 0.05,0.11 0.14,0.2 0.25,0.26 0.05,0.03 0.13,0.05 0.21,0.05l0.68 0c0.2,0 0.23,-0.3 0.04,-0.35 -0.05,-0.01 -0.51,-0.01 -0.6,-0.01 -0.24,0 -0.3,-0.1 -0.24,-0.31 0.09,-0.36 0.22,-0.54 0.42,-0.8l0.19 -0.19c0.02,-0.02 0.02,-0.02 0.04,-0.04 0.42,-0.36 1.05,-0.53 1.64,-0.41 0.07,0.01 0.12,0.03 0.18,0.04 0.09,0.02 0.11,0.05 0.2,0.05 0.17,0 0.29,-0.3 -0.04,-0.38 0.14,-0.12 0.23,-0.2 0.33,-0.38 0.13,-0.23 0.15,-0.38 0.15,-0.66 0,-0.22 -0.08,-0.39 -0.16,-0.55 -0.18,-0.33 -0.61,-0.6 -0.99,-0.6 -0.26,0 -0.34,0.01 -0.58,0.11 -0.22,0.09 -0.48,0.35 -0.58,0.57 -0.05,0.12 -0.12,0.3 -0.12,0.46z"/>
 </g>
</svg>
