<?xml version="1.0" encoding="UTF-8"?>
<!DOCTYPE svg PUBLIC "-//W3C//DTD SVG 1.1//EN" "http://www.w3.org/Graphics/SVG/1.1/DTD/svg11.dtd">
<!-- Creator: CorelDRAW 2019 (64-Bit) -->
<svg xmlns="http://www.w3.org/2000/svg" xml:space="preserve" width="6.1508mm" height="8.0398mm" version="1.1" style="shape-rendering:geometricPrecision; text-rendering:geometricPrecision; image-rendering:optimizeQuality; fill-rule:evenodd; clip-rule:evenodd"
viewBox="0 0 16.62 21.72"
 xmlns:xlink="http://www.w3.org/1999/xlink"
 xmlns:xodm="http://www.corel.com/coreldraw/odm/2003">
 <defs>
  <style type="text/css">
   <![CDATA[
    .str0 {stroke:#D2E28B;stroke-width:0.21;stroke-miterlimit:22.9256}
    .fil0 {fill:#A8CF45}
   ]]>
  </style>
 </defs>
 <g id="Capa_x0020_1">
  <metadata id="CorelCorpID_0Corel-Layer"/>
  <path class="fil0" d="M6.77 5.77c0,-3.54 4.37,-5.45 6.95,-2.87 2.06,2.06 1.29,5.5 -1.21,6.58 -2.16,0.93 -4.53,-0.08 -5.37,-2.04 -0.19,-0.43 -0.37,-1.07 -0.37,-1.67zm-1.7 -0.3c0,0.9 0.07,1.77 0.45,2.56 0.32,0.65 0.42,0.9 0.96,1.54 0.25,0.3 0.59,0.57 0.88,0.82 -0.33,0.08 -1.06,0.4 -1.39,0.57 -0.87,0.43 -1.4,0.77 -2.12,1.36l-0.79 0.7c-0.58,0.58 -1.35,1.54 -1.74,2.25 -0.7,1.26 -1.81,3.52 -1.1,4.99 0.25,0.53 0.68,0.96 1.2,1.22 0.26,0.12 0.6,0.25 0.98,0.25l3.22 0c0.93,0 1.1,-1.43 0.19,-1.67 -0.23,-0.06 -2.44,-0.02 -2.86,-0.02 -1.15,0 -1.41,-0.46 -1.15,-1.49 0.44,-1.7 1.05,-2.56 2.01,-3.8l0.9 -0.88c0.09,-0.07 0.11,-0.11 0.2,-0.18 1.99,-1.69 4.99,-2.51 7.77,-1.95 0.31,0.06 0.56,0.13 0.85,0.21 0.41,0.12 0.52,0.24 0.95,0.24 0.81,0 1.37,-1.42 -0.17,-1.78 0.68,-0.59 1.09,-0.95 1.56,-1.79 0.6,-1.07 0.73,-1.8 0.73,-3.13 0,-1.02 -0.36,-1.84 -0.78,-2.62 -0.86,-1.58 -2.88,-2.86 -4.69,-2.86 -1.23,0 -1.63,0.06 -2.77,0.54 -1.05,0.45 -2.28,1.67 -2.74,2.73 -0.25,0.56 -0.55,1.4 -0.55,2.21z"/>
  <path class="fil0 str0" d="M10.89 20.81c0,-0.43 0.67,-0.43 0.67,0 0,0.45 -0.67,0.45 -0.67,0zm-2.12 -8.37l4.92 0 0 7.79 -4.92 0 0 -7.79zm1.75 -0.59l1.43 0c0.08,0 0.08,0.06 0.08,0.14 -0.16,0.04 -1.42,0.04 -1.59,0 0,-0.08 0,-0.14 0.08,-0.14zm-2.24 0.2l0 8.77c0,0.37 0.29,0.69 0.65,0.69l4.6 0c0.35,0 0.65,-0.32 0.65,-0.67l0 -8.81c0,-0.35 -0.3,-0.67 -0.65,-0.67l-4.6 0c-0.36,0 -0.65,0.33 -0.65,0.69z"/>
 </g>
</svg>
