<?xml version="1.0" encoding="UTF-8"?>
<!DOCTYPE svg PUBLIC "-//W3C//DTD SVG 1.1//EN" "http://www.w3.org/Graphics/SVG/1.1/DTD/svg11.dtd">
<!-- Creator: CorelDRAW 2019 (64-Bit) -->
<svg xmlns="http://www.w3.org/2000/svg" xml:space="preserve" width="4.0734mm" height="5.3244mm" version="1.1" style="shape-rendering:geometricPrecision; text-rendering:geometricPrecision; image-rendering:optimizeQuality; fill-rule:evenodd; clip-rule:evenodd"
viewBox="0 0 6.27 8.19"
 xmlns:xlink="http://www.w3.org/1999/xlink"
 xmlns:xodm="http://www.corel.com/coreldraw/odm/2003">
 <defs>
  <style type="text/css">
   <![CDATA[
    .str0 {stroke:#D2E28B;stroke-width:0.12;stroke-miterlimit:22.9256}
    .fil0 {fill:#FEFEFE}
   ]]>
  </style>
 </defs>
 <g id="Capa_x0020_1">
  <metadata id="CorelCorpID_0Corel-Layer"/>
  <path class="fil0" d="M2.56 2.18c0,-1.33 1.65,-2.06 2.62,-1.08 0.78,0.78 0.49,2.08 -0.46,2.48 -0.82,0.35 -1.71,-0.03 -2.03,-0.77 -0.07,-0.16 -0.14,-0.4 -0.14,-0.63zm-0.64 -0.11c0,0.34 0.03,0.67 0.17,0.97 0.12,0.24 0.16,0.34 0.36,0.58 0.09,0.11 0.22,0.21 0.33,0.31 -0.12,0.03 -0.4,0.15 -0.52,0.21 -0.33,0.16 -0.53,0.29 -0.8,0.51l-0.3 0.26c-0.22,0.22 -0.51,0.58 -0.66,0.85 -0.26,0.48 -0.68,1.33 -0.42,1.88 0.1,0.2 0.26,0.36 0.45,0.46 0.1,0.05 0.22,0.1 0.37,0.1l1.22 0c0.35,0 0.41,-0.54 0.07,-0.63 -0.09,-0.02 -0.92,-0.01 -1.08,-0.01 -0.43,0 -0.53,-0.17 -0.43,-0.56 0.17,-0.64 0.39,-0.96 0.76,-1.43l0.34 -0.33c0.04,-0.03 0.04,-0.04 0.08,-0.07 0.75,-0.64 1.88,-0.95 2.93,-0.73 0.12,0.02 0.21,0.05 0.32,0.08 0.16,0.04 0.19,0.09 0.36,0.09 0.31,0 0.52,-0.54 -0.06,-0.67 0.26,-0.22 0.41,-0.36 0.59,-0.68 0.23,-0.41 0.28,-0.68 0.28,-1.18 0,-0.39 -0.14,-0.7 -0.29,-0.99 -0.32,-0.6 -1.09,-1.08 -1.77,-1.08 -0.46,0 -0.62,0.02 -1.04,0.2 -0.4,0.17 -0.86,0.63 -1.04,1.03 -0.09,0.21 -0.21,0.53 -0.21,0.83z"/>
  <path class="fil0 str0" d="M4.11 7.85c0,-0.16 0.25,-0.16 0.25,0 0,0.17 -0.25,0.17 -0.25,0zm-0.8 -3.16l1.86 0 0 2.94 -1.86 0 0 -2.94zm0.66 -0.22l0.54 0c0.03,0 0.03,0.02 0.03,0.05 -0.06,0.01 -0.54,0.01 -0.6,0 0,-0.03 0,-0.05 0.03,-0.05zm-0.85 0.07l0 3.31c0,0.14 0.11,0.26 0.25,0.26l1.74 0c0.13,0 0.25,-0.12 0.25,-0.25l0 -3.32c0,-0.13 -0.11,-0.25 -0.25,-0.25l-1.74 0c-0.14,0 -0.25,0.12 -0.25,0.26z"/>
 </g>
</svg>
