<?xml version="1.0" encoding="UTF-8"?>
<!DOCTYPE svg PUBLIC "-//W3C//DTD SVG 1.1//EN" "http://www.w3.org/Graphics/SVG/1.1/DTD/svg11.dtd">
<!-- Creator: CorelDRAW 2019 (64-Bit) -->
<svg xmlns="http://www.w3.org/2000/svg" xml:space="preserve" width="4.0385mm" height="4.0386mm" version="1.1" style="shape-rendering:geometricPrecision; text-rendering:geometricPrecision; image-rendering:optimizeQuality; fill-rule:evenodd; clip-rule:evenodd"
viewBox="0 0 14.13 14.13"
 xmlns:xlink="http://www.w3.org/1999/xlink"
 xmlns:xodm="http://www.corel.com/coreldraw/odm/2003">
 <defs>
  <style type="text/css">
   <![CDATA[
    .fil1 {fill:#FEFEFE}
    .fil0 {fill:#A8CF45}
   ]]>
  </style>
 </defs>
 <g id="Capa_x0020_1">
  <metadata id="CorelCorpID_0Corel-Layer"/>
  <circle class="fil0" cx="7.06" cy="7.06" r="7.06"/>
  <g id="_1856484322608">
   <polygon class="fil1" points="4.27,9.15 5.64,10.53 10.86,5.33 9.48,3.94 "/>
   <path class="fil1" d="M10.07 3.36l0.1 0.1c0,0 0.01,0.01 0.01,0.01l1.1 1.1c0.06,0.06 0.12,0.11 0.17,0.18 0.08,-0.05 0.26,-0.25 0.32,-0.33 0.14,-0.19 0.17,-0.38 0.17,-0.62 0,-0.46 -0.46,-0.92 -0.92,-0.92 -0.24,0 -0.42,0.03 -0.61,0.16 -0.08,0.06 -0.29,0.25 -0.34,0.33z"/>
   <path class="fil1" d="M3.53 11.14c0,0.25 0.39,0.06 0.57,-0l1.32 -0.44 -1.31 -1.32 -0.15 0.43c-0.06,0.17 -0.43,1.24 -0.43,1.33z"/>
   <polygon class="fil1" points="9.67,3.75 11.05,5.13 11.25,4.94 9.87,3.55 "/>
  </g>
 </g>
</svg>
