<?xml version="1.0" encoding="UTF-8"?>
<!DOCTYPE svg PUBLIC "-//W3C//DTD SVG 1.1//EN" "http://www.w3.org/Graphics/SVG/1.1/DTD/svg11.dtd">
<!-- Creator: CorelDRAW 2019 (64-Bit) -->
<svg xmlns="http://www.w3.org/2000/svg" xml:space="preserve" width="4.0385mm" height="4.0386mm" version="1.1" style="shape-rendering:geometricPrecision; text-rendering:geometricPrecision; image-rendering:optimizeQuality; fill-rule:evenodd; clip-rule:evenodd"
viewBox="0 0 18.81 18.81"
 xmlns:xlink="http://www.w3.org/1999/xlink"
 xmlns:xodm="http://www.corel.com/coreldraw/odm/2003">
 <defs>
  <style type="text/css">
   <![CDATA[
    .fil1 {fill:#FEFEFE}
    .fil0 {fill:#A8CF45}
   ]]>
  </style>
 </defs>
 <g id="Capa_x0020_1">
  <metadata id="CorelCorpID_0Corel-Layer"/>
  <circle class="fil0" cx="9.4" cy="9.4" r="9.4"/>
  <g id="_1856448148640">
   <path class="fil1" d="M10.35 11.2l1.71 0 0 0.68 -1.71 0 0 -0.68zm-1.37 0l1.02 0 0 0.68 -1.02 0 0 -0.68zm1.37 -1.03l1.71 0 0 0.68 -1.71 0 0 -0.68zm-1.37 0l1.02 0 0 0.68 -1.02 0 0 -0.68zm1.37 -1.03l1.71 0 0 0.68 -1.71 0 0 -0.68zm-1.37 0l1.02 0 0 0.68 -1.02 0 0 -0.68zm1.37 -1.03l1.71 0 0 0.68 -1.71 0 0 -0.68zm-1.37 0l1.02 0 0 0.68 -1.02 0 0 -0.68zm1.37 -1.03l1.71 0 0 0.68 -1.71 0 0 -0.68zm-1.37 0l1.02 0 0 0.68 -1.02 0 0 -0.68zm-2.41 1.56l0.66 -1.05c0.11,-0.18 0.25,-0.23 0.34,-0.09 0.08,0.12 -0.05,0.28 -0.12,0.39l-0.66 1.07c-0.01,0.05 0.16,0.29 0.2,0.35l0.45 0.71c0.06,0.09 0.21,0.27 0.15,0.4 -0.03,0.06 -0.09,0.11 -0.19,0.09 -0.12,-0.02 -0.31,-0.39 -0.37,-0.5l-0.33 -0.54c-0.04,-0.07 -0.08,-0.14 -0.13,-0.18 -0.03,0.09 -0.56,0.9 -0.65,1.06 -0.03,0.06 -0.07,0.13 -0.14,0.15 -0.13,0.04 -0.31,-0.08 -0.18,-0.29 0.04,-0.06 0.07,-0.12 0.11,-0.18 0.08,-0.12 0.15,-0.24 0.22,-0.36 0.08,-0.13 0.4,-0.62 0.44,-0.71l-0.66 -1.07c-0.06,-0.09 -0.21,-0.27 -0.14,-0.39 0.05,-0.09 0.2,-0.17 0.34,0.06 0.17,0.27 0.52,0.86 0.67,1.07zm3.78 -2.59l1.71 0 0 0.68 -1.71 0 0 -0.68zm-1.37 0l1.02 0 0 0.68 -1.02 0 0 -0.68zm-4.82 0.13l0 5.9c0,0.18 0.28,0.18 0.51,0.22l4.14 0.63c0.11,-0.01 0.17,-0.09 0.17,-0.2l0 -0.48 3.24 0c0.1,0 0.19,-0.06 0.19,-0.16l0 -6.22c0,-0.1 -0.1,-0.16 -0.21,-0.16l-3.22 0 0 -0.52c0,-0.09 -0.1,-0.18 -0.19,-0.17l-0.31 0.07c-1.02,0.22 -2.13,0.51 -3.14,0.73l-0.94 0.22c-0.06,0.01 -0.23,0.05 -0.23,0.16z"/>
   <path class="fil1" d="M14.65 12.51c0,-0.08 -0.05,-0.16 -0.16,-0.19 -0.23,-0.06 -0.4,0.15 -0.63,0.32 -0.11,0.08 -0.68,0.51 -0.75,0.55l0 -3.46c0,-0.18 0.03,-0.34 -0.28,-0.34 -0.25,0 -0.22,0.25 -0.22,0.33l0 3.47c-0.07,-0.03 -0.81,-0.59 -0.93,-0.68 -0.08,-0.06 -0.23,-0.2 -0.36,-0.2 -0.11,0 -0.25,0.08 -0.25,0.18 0,0.12 0.23,0.25 0.39,0.37 0.15,0.11 0.29,0.22 0.45,0.33l0.67 0.49c0.07,0.05 0.14,0.12 0.27,0.13 0.15,0.01 0.35,-0.18 0.5,-0.28l1.12 -0.82c0.06,-0.05 0.19,-0.11 0.19,-0.19z"/>
  </g>
 </g>
</svg>
