<?xml version="1.0" encoding="UTF-8"?>
<!DOCTYPE svg PUBLIC "-//W3C//DTD SVG 1.1//EN" "http://www.w3.org/Graphics/SVG/1.1/DTD/svg11.dtd">
<!-- Creator: CorelDRAW 2019 (64-Bit) -->
<svg xmlns="http://www.w3.org/2000/svg" xml:space="preserve" width="3.8945mm" height="3.5391mm" version="1.1" style="shape-rendering:geometricPrecision; text-rendering:geometricPrecision; image-rendering:optimizeQuality; fill-rule:evenodd; clip-rule:evenodd"
viewBox="0 0 12.3 11.17"
 xmlns:xlink="http://www.w3.org/1999/xlink"
 xmlns:xodm="http://www.corel.com/coreldraw/odm/2003">
 <defs>
  <style type="text/css">
   <![CDATA[
    .fil0 {fill:#A8CF45}
   ]]>
  </style>
 </defs>
 <g id="Capa_x0020_1">
  <metadata id="CorelCorpID_0Corel-Layer"/>
  <g id="_1856471305952">
   <path class="fil0" d="M6.42 7.07c0.13,-0.33 0.26,-0.73 0.39,-1.06 0.02,-0.06 0.04,-0.12 0.07,-0.18 0.02,-0.06 0.05,-0.12 0.06,-0.18 0.05,0.01 0.37,0.02 0.45,0.01 0.08,-0.02 0.11,-0.12 0.14,-0.2 0.02,-0.05 0.08,-0.2 0.11,-0.23 0.06,0 0.11,0.01 0.18,0.02 0.06,0 0.13,0.02 0.19,0.02l1.13 0.11c-0,0 -0.01,0 -0.01,0.01l-0.07 0.05c-0.52,0.31 -1.09,0.69 -1.61,1.01 -0.11,0.07 -0.23,0.14 -0.34,0.21l-0.69 0.42zm-1.28 -1.5c0.04,0.01 0.14,0.01 0.18,0.01 0.42,0.02 0.89,0.05 1.31,0.06 -0.04,0.15 -0.2,0.54 -0.26,0.72 -0.02,0.06 -0.04,0.11 -0.07,0.18l-0.17 0.46c-0.01,0.04 -0.02,0.06 -0.04,0.09 -0.04,-0.05 -0.08,-0.12 -0.12,-0.19l-0.83 -1.33zm3.21 -1.99c0.03,0.07 0.08,0.13 0.11,0.19 0.12,0.19 0.81,1.27 0.82,1.33 -0.05,-0.01 -0.14,-0.02 -0.19,-0.02l-1.35 -0.13c0,-0.06 0.11,-0.28 0.13,-0.34l0.37 -0.86c0.01,-0.03 0.02,-0.05 0.04,-0.08 0.02,-0.04 0.01,-0.06 0.05,-0.08zm-0.37 0.06c-0.03,0.09 -0.09,0.23 -0.13,0.32l-0.14 0.32c-0.03,0.08 -0.06,0.15 -0.09,0.22l-0.37 0.86c-0.05,0.01 -0.17,-0 -0.24,-0.01l-1.65 -0.1c0.05,-0.01 0.6,-0.37 0.66,-0.4l0.33 -0.21c0.11,-0.07 0.21,-0.13 0.33,-0.21 0.11,-0.07 0.21,-0.13 0.32,-0.2l0.66 -0.41c0.07,-0.04 0.27,-0.18 0.33,-0.2zm0 0l0 0zm-3.2 1.85c0.03,0.16 0.24,0.44 0.33,0.59l0.67 1.07c0.12,0.19 0.21,0.42 0.45,0.37 0.09,-0.02 0.17,-0.09 0.24,-0.13l0.67 -0.41c0.3,-0.18 0.59,-0.37 0.89,-0.56 0,-0 1.5,-0.92 1.55,-0.98 0.21,-0.2 -0.03,-0.47 -0.14,-0.65l-0.67 -1.07c-0.08,-0.13 -0.25,-0.44 -0.35,-0.5 -0.14,-0.09 -0.26,-0.03 -0.39,0.06l-0.89 0.56c-0.06,0.04 -0.12,0.08 -0.18,0.11 -0.38,0.24 -0.87,0.56 -1.25,0.78l-0.71 0.45c-0.08,0.05 -0.14,0.09 -0.18,0.17 -0.01,0.02 -0.01,0.02 -0.02,0.05 -0.01,0.04 -0.01,0.07 -0.01,0.11z"/>
   <path class="fil0" d="M4.59 7.94c0.03,0.13 0.14,0.14 0.2,0.11l0.43 -0.27c0.1,-0.06 0.15,-0.1 0.13,-0.21 -0.02,-0.09 -0.12,-0.12 -0.2,-0.09l-0.43 0.27c-0.07,0.04 -0.15,0.09 -0.13,0.19z"/>
   <path class="fil0" d="M3.8 6.69c0.02,0.1 0.09,0.13 0.19,0.11l0.35 -0.22c0.1,-0.1 0.01,-0.28 -0.13,-0.25 -0.05,0.01 -0.2,0.11 -0.25,0.14 -0.08,0.05 -0.19,0.1 -0.16,0.21z"/>
   <path class="fil0" d="M3.69 7.77c0.06,0.3 0.46,-0.05 0.47,-0.07 0.09,-0.1 0,-0.26 -0.14,-0.23 -0.05,0.01 -0.27,0.15 -0.3,0.18 -0.02,0.03 -0.04,0.07 -0.03,0.12z"/>
  </g>
  <path class="fil0" d="M1.14 5.39c0,0.45 0.02,1.53 0.19,1.89 -0.11,-0.03 -0.78,-0.48 -0.92,-0.48 -0.27,0 -0.41,0.18 -0.41,0.46 0,0.22 0.26,0.33 0.41,0.41l1.07 0.63c0.09,0.05 0.17,0.1 0.26,0.15 0.59,0.35 0.7,0.14 0.91,-0.4 0.12,-0.29 0.59,-1.37 0.59,-1.56 0,-0.22 -0.18,-0.39 -0.39,-0.39 -0.34,0 -0.42,0.37 -0.58,0.75 -0.04,0.11 -0.1,0.22 -0.12,0.34 -0.08,-0.06 -0.03,0.01 -0.06,-0.11 -0.17,-0.63 -0.16,-1.08 -0.16,-1.73 0,-0.88 0.43,-1.93 0.91,-2.57 0.1,-0.13 0.4,-0.52 0.54,-0.63 0.12,-0.1 0.19,-0.18 0.31,-0.27 0.65,-0.48 1.13,-0.75 1.95,-0.95 0.96,-0.24 2.16,-0.12 3,0.29 0.57,0.28 0.57,0.28 1.09,0.66 0.3,0.22 0.62,0.59 0.85,0.9 0.18,0.24 0.3,0.44 0.44,0.72 0.25,0.5 0.48,1.26 0.48,1.86 0,0.81 -0.04,1.27 -0.34,2.03 -0.1,0.25 -0.29,0.6 -0.43,0.83 -0.08,0.12 -0.18,0.24 -0.27,0.36 -0.1,0.13 -0.19,0.21 -0.29,0.34 -0.04,0.06 -0.1,0.11 -0.16,0.16 -0.08,0.07 -0.1,0.09 -0.18,0.16 -0.1,0.1 -0.24,0.19 -0.36,0.27 -0.56,0.42 -1.57,0.82 -2.29,0.86 -0.33,0.02 -0.87,-0.04 -0.87,0.41 0,0.22 0.19,0.41 0.41,0.41 1.65,0 3.05,-0.76 3.88,-1.59 0.06,-0.06 0.11,-0.11 0.17,-0.17 0.07,-0.07 0.09,-0.11 0.16,-0.18 0.12,-0.13 0.2,-0.23 0.3,-0.37 0.2,-0.26 0.36,-0.56 0.52,-0.86 0.96,-1.92 0.61,-4.52 -0.81,-6.05 -0.06,-0.07 -0.09,-0.11 -0.16,-0.18 -0.07,-0.07 -0.12,-0.11 -0.18,-0.18 -2.11,-2.11 -5.67,-2.11 -7.78,0 -0.51,0.51 -0.81,0.91 -1.15,1.59 -0.27,0.54 -0.54,1.42 -0.54,2.22z"/>
 </g>
</svg>
