<?xml version="1.0" encoding="UTF-8"?>
<!DOCTYPE svg PUBLIC "-//W3C//DTD SVG 1.1//EN" "http://www.w3.org/Graphics/SVG/1.1/DTD/svg11.dtd">
<!-- Creator: CorelDRAW 2019 (64-Bit) -->
<svg xmlns="http://www.w3.org/2000/svg" xml:space="preserve" width="5.8838mm" height="5.3469mm" version="1.1" style="shape-rendering:geometricPrecision; text-rendering:geometricPrecision; image-rendering:optimizeQuality; fill-rule:evenodd; clip-rule:evenodd"
viewBox="0 0 13.01 11.82"
 xmlns:xlink="http://www.w3.org/1999/xlink"
 xmlns:xodm="http://www.corel.com/coreldraw/odm/2003">
 <defs>
  <style type="text/css">
   <![CDATA[
    .fil0 {fill:#FEFEFE}
   ]]>
  </style>
 </defs>
 <g id="Capa_x0020_1">
  <metadata id="CorelCorpID_0Corel-Layer"/>
  <g id="_1856494699936">
   <path class="fil0" d="M6.79 7.48c0.14,-0.34 0.27,-0.77 0.41,-1.12 0.02,-0.06 0.05,-0.13 0.07,-0.19 0.02,-0.06 0.05,-0.12 0.07,-0.19 0.05,0.01 0.39,0.03 0.47,0.01 0.08,-0.02 0.12,-0.13 0.15,-0.21 0.02,-0.06 0.09,-0.21 0.12,-0.24 0.06,0 0.12,0.01 0.19,0.02 0.06,0 0.14,0.02 0.2,0.02l1.19 0.12c-0,0 -0.01,0 -0.01,0.01l-0.08 0.05c-0.55,0.33 -1.15,0.73 -1.7,1.07 -0.12,0.07 -0.24,0.15 -0.36,0.22l-0.73 0.45zm-1.35 -1.59c0.04,0.01 0.15,0.01 0.19,0.01 0.45,0.02 0.94,0.05 1.38,0.06 -0.05,0.16 -0.21,0.58 -0.28,0.76 -0.02,0.07 -0.05,0.12 -0.07,0.19l-0.18 0.48c-0.01,0.04 -0.02,0.07 -0.04,0.09 -0.04,-0.05 -0.08,-0.13 -0.13,-0.2l-0.88 -1.41zm3.39 -2.1c0.03,0.07 0.08,0.14 0.12,0.2 0.12,0.2 0.85,1.34 0.87,1.4 -0.05,-0.01 -0.15,-0.02 -0.2,-0.02l-1.42 -0.14c0,-0.06 0.11,-0.29 0.14,-0.36l0.39 -0.91c0.01,-0.04 0.02,-0.05 0.04,-0.09 0.02,-0.04 0.01,-0.07 0.06,-0.09zm-0.39 0.07c-0.03,0.1 -0.1,0.24 -0.14,0.34l-0.14 0.34c-0.03,0.08 -0.06,0.16 -0.1,0.24l-0.39 0.91c-0.06,0.01 -0.18,-0 -0.25,-0.01l-1.75 -0.1c0.05,-0.01 0.63,-0.39 0.69,-0.42l0.35 -0.22c0.12,-0.08 0.23,-0.14 0.35,-0.22 0.12,-0.07 0.22,-0.14 0.34,-0.21l0.7 -0.43c0.08,-0.05 0.28,-0.19 0.35,-0.21zm0 0l0 0zm-3.38 1.95c0.04,0.17 0.25,0.46 0.35,0.62l0.71 1.13c0.13,0.2 0.23,0.44 0.48,0.39 0.1,-0.02 0.18,-0.09 0.25,-0.13l0.71 -0.44c0.32,-0.2 0.62,-0.4 0.95,-0.59 0,-0 1.58,-0.98 1.64,-1.04 0.22,-0.21 -0.03,-0.49 -0.15,-0.68l-0.71 -1.14c-0.09,-0.14 -0.26,-0.46 -0.37,-0.53 -0.15,-0.1 -0.27,-0.03 -0.41,0.06l-0.95 0.59c-0.06,0.04 -0.13,0.08 -0.19,0.12 -0.4,0.25 -0.92,0.6 -1.32,0.83l-0.76 0.47c-0.09,0.05 -0.15,0.09 -0.19,0.17 -0.01,0.03 -0.01,0.02 -0.02,0.05 -0.01,0.04 -0.02,0.07 -0.01,0.12z"/>
   <path class="fil0" d="M4.86 8.4c0.03,0.14 0.15,0.15 0.22,0.12l0.45 -0.28c0.11,-0.07 0.16,-0.1 0.14,-0.22 -0.02,-0.1 -0.13,-0.13 -0.21,-0.09l-0.45 0.28c-0.07,0.04 -0.16,0.1 -0.14,0.2z"/>
   <path class="fil0" d="M4.02 7.07c0.02,0.1 0.1,0.14 0.2,0.12l0.37 -0.23c0.11,-0.11 0.01,-0.29 -0.14,-0.26 -0.05,0.01 -0.21,0.12 -0.26,0.15 -0.08,0.05 -0.2,0.1 -0.17,0.22z"/>
   <path class="fil0" d="M3.91 8.22c0.07,0.32 0.49,-0.05 0.5,-0.07 0.09,-0.11 0,-0.28 -0.15,-0.24 -0.06,0.01 -0.29,0.16 -0.32,0.19 -0.02,0.03 -0.04,0.08 -0.03,0.12z"/>
  </g>
  <path class="fil0" d="M1.2 5.7c0,0.48 0.02,1.62 0.2,2 -0.12,-0.03 -0.82,-0.51 -0.97,-0.51 -0.29,0 -0.44,0.19 -0.44,0.49 0,0.23 0.28,0.35 0.43,0.44l1.13 0.66c0.1,0.06 0.18,0.1 0.28,0.16 0.62,0.37 0.74,0.14 0.97,-0.43 0.12,-0.31 0.63,-1.45 0.63,-1.65 0,-0.23 -0.19,-0.41 -0.41,-0.41 -0.36,0 -0.45,0.39 -0.61,0.8 -0.05,0.11 -0.1,0.24 -0.13,0.36 -0.08,-0.06 -0.03,0.01 -0.06,-0.12 -0.18,-0.67 -0.17,-1.15 -0.17,-1.83 0,-0.93 0.46,-2.04 0.97,-2.72 0.11,-0.14 0.43,-0.55 0.57,-0.66 0.13,-0.1 0.2,-0.19 0.33,-0.29 0.69,-0.51 1.2,-0.79 2.06,-1.01 1.02,-0.25 2.29,-0.13 3.17,0.3 0.6,0.29 0.61,0.29 1.15,0.69 0.32,0.24 0.66,0.63 0.9,0.95 0.19,0.26 0.32,0.47 0.46,0.76 0.26,0.53 0.51,1.34 0.51,1.97 0,0.86 -0.04,1.34 -0.36,2.15 -0.11,0.27 -0.3,0.63 -0.46,0.88 -0.08,0.13 -0.19,0.26 -0.28,0.38 -0.11,0.14 -0.2,0.22 -0.31,0.36 -0.05,0.06 -0.1,0.12 -0.17,0.16 -0.09,0.07 -0.11,0.1 -0.19,0.17 -0.1,0.1 -0.25,0.2 -0.38,0.29 -0.59,0.45 -1.66,0.87 -2.42,0.91 -0.35,0.02 -0.92,-0.04 -0.92,0.44 0,0.23 0.2,0.44 0.44,0.44 1.74,0 3.23,-0.81 4.1,-1.68 0.07,-0.07 0.11,-0.11 0.18,-0.18 0.08,-0.08 0.1,-0.12 0.17,-0.19 0.12,-0.14 0.21,-0.25 0.32,-0.4 0.21,-0.28 0.39,-0.59 0.55,-0.91 1.02,-2.03 0.65,-4.78 -0.86,-6.4 -0.07,-0.07 -0.09,-0.12 -0.17,-0.19 -0.07,-0.07 -0.12,-0.12 -0.19,-0.19 -2.24,-2.24 -6,-2.23 -8.23,0 -0.54,0.54 -0.86,0.97 -1.21,1.68 -0.29,0.57 -0.57,1.51 -0.57,2.35z"/>
 </g>
</svg>
