<?xml version="1.0" encoding="UTF-8"?>
<!DOCTYPE svg PUBLIC "-//W3C//DTD SVG 1.1//EN" "http://www.w3.org/Graphics/SVG/1.1/DTD/svg11.dtd">
<!-- Creator: CorelDRAW 2019 (64-Bit) -->
<svg xmlns="http://www.w3.org/2000/svg" xml:space="preserve" width="4.0385mm" height="4.0386mm" version="1.1" style="shape-rendering:geometricPrecision; text-rendering:geometricPrecision; image-rendering:optimizeQuality; fill-rule:evenodd; clip-rule:evenodd"
viewBox="0 0 16.96 16.96"
 xmlns:xlink="http://www.w3.org/1999/xlink"
 xmlns:xodm="http://www.corel.com/coreldraw/odm/2003">
 <defs>
  <style type="text/css">
   <![CDATA[
    .fil1 {fill:#FEFEFE}
    .fil0 {fill:#A8CF45}
   ]]>
  </style>
 </defs>
 <g id="Capa_x0020_1">
  <metadata id="CorelCorpID_0Corel-Layer"/>
  <circle class="fil0" cx="8.48" cy="8.48" r="8.48"/>
  <g id="_1856484339216">
   <path class="fil1" d="M9.02 10.88l1.46 0 0 0.58 -1.46 0 0 -0.58zm-1.17 0l0.87 0 0 0.58 -0.87 0 0 -0.58zm1.17 -0.88l1.46 0 0 0.58 -1.46 0 0 -0.58zm-1.17 0l0.87 0 0 0.58 -0.87 0 0 -0.58zm1.17 -0.88l1.46 0 0 0.58 -1.46 0 0 -0.58zm-1.17 0l0.87 0 0 0.58 -0.87 0 0 -0.58zm1.17 -0.88l1.46 0 0 0.58 -1.46 0 0 -0.58zm-1.17 0l0.87 0 0 0.58 -0.87 0 0 -0.58zm1.17 -0.88l1.46 0 0 0.58 -1.46 0 0 -0.58zm-1.17 0l0.87 0 0 0.58 -0.87 0 0 -0.58zm-2.06 1.33l0.56 -0.9c0.09,-0.15 0.21,-0.19 0.29,-0.08 0.07,0.1 -0.04,0.24 -0.11,0.33l-0.57 0.91c-0.01,0.04 0.14,0.25 0.17,0.3l0.38 0.61c0.05,0.08 0.18,0.23 0.13,0.34 -0.02,0.05 -0.08,0.09 -0.16,0.08 -0.1,-0.02 -0.26,-0.33 -0.32,-0.42l-0.29 -0.46c-0.04,-0.06 -0.06,-0.12 -0.11,-0.15 -0.03,0.07 -0.47,0.77 -0.56,0.9 -0.03,0.05 -0.06,0.11 -0.12,0.13 -0.11,0.03 -0.26,-0.07 -0.15,-0.25 0.03,-0.05 0.06,-0.1 0.1,-0.15 0.07,-0.1 0.13,-0.2 0.19,-0.3 0.07,-0.11 0.34,-0.53 0.37,-0.61l-0.57 -0.91c-0.05,-0.08 -0.18,-0.23 -0.12,-0.33 0.04,-0.08 0.17,-0.14 0.29,0.05 0.15,0.23 0.44,0.73 0.57,0.91zm3.22 -2.21l1.46 0 0 0.58 -1.46 0 0 -0.58zm-1.17 0l0.87 0 0 0.58 -0.87 0 0 -0.58zm-4.11 0.11l0 5.03c0,0.16 0.24,0.15 0.43,0.18l3.53 0.54c0.09,-0.01 0.14,-0.07 0.14,-0.17l0 -0.41 2.76 0c0.09,0 0.16,-0.05 0.16,-0.14l0 -5.3c0,-0.09 -0.09,-0.14 -0.18,-0.14l-2.75 0 0 -0.44c0,-0.08 -0.08,-0.15 -0.16,-0.15l-0.27 0.06c-0.87,0.18 -1.82,0.44 -2.68,0.62l-0.8 0.18c-0.05,0.01 -0.19,0.04 -0.19,0.13z"/>
   <path class="fil1" d="M9.72 5.89c0,0.08 0.04,0.16 0.15,0.19 0.22,0.06 0.39,-0.14 0.62,-0.31 0.11,-0.08 0.66,-0.5 0.73,-0.53l0 3.37c-0,0.18 -0.03,0.33 0.27,0.33 0.25,0 0.21,-0.24 0.21,-0.32l0 -3.38c0.07,0.03 0.79,0.57 0.91,0.66 0.07,0.06 0.23,0.19 0.35,0.19 0.11,0 0.24,-0.08 0.24,-0.18 0,-0.12 -0.22,-0.24 -0.38,-0.36 -0.15,-0.11 -0.29,-0.21 -0.44,-0.32l-0.65 -0.48c-0.07,-0.05 -0.14,-0.12 -0.26,-0.13 -0.15,-0.01 -0.34,0.17 -0.48,0.28l-1.09 0.8c-0.06,0.04 -0.18,0.11 -0.18,0.19z"/>
  </g>
 </g>
</svg>
