<?xml version="1.0" encoding="UTF-8"?>
<!DOCTYPE svg PUBLIC "-//W3C//DTD SVG 1.1//EN" "http://www.w3.org/Graphics/SVG/1.1/DTD/svg11.dtd">
<!-- Creator: CorelDRAW 2019 (64-Bit) -->
<svg xmlns="http://www.w3.org/2000/svg" xml:space="preserve" width="3.6935mm" height="3.6935mm" version="1.1" style="shape-rendering:geometricPrecision; text-rendering:geometricPrecision; image-rendering:optimizeQuality; fill-rule:evenodd; clip-rule:evenodd"
viewBox="0 0 5.93 5.93"
 xmlns:xlink="http://www.w3.org/1999/xlink"
 xmlns:xodm="http://www.corel.com/coreldraw/odm/2003">
 <defs>
  <style type="text/css">
   <![CDATA[
    .fil0 {fill:#A9ABAE}
   ]]>
  </style>
 </defs>
 <g id="Capa_x0020_1">
  <metadata id="CorelCorpID_0Corel-Layer"/>
  <g id="_1856436232768">
   <path class="fil0" d="M0.37 4.94l0 -4.41c0,-0.04 0.01,-0.08 0.03,-0.11 0.02,-0.02 0.07,-0.04 0.1,-0.04l1.45 0.48c0.07,0.02 0.15,0.05 0.15,0.13l0 4.44c0,0.09 -0.07,0.14 -0.12,0.14 -0.04,0 -1.12,-0.37 -1.26,-0.41 -0.16,-0.05 -0.35,-0.08 -0.35,-0.21zm-0.37 -4.48l0 4.53c0,0.19 0.16,0.36 0.3,0.42 0.08,0.03 0.18,0.06 0.27,0.09 0.17,0.06 1.26,0.44 1.37,0.44 0.18,0 0.29,-0.03 0.42,-0.17 0.14,-0.16 0.12,-0.35 0.12,-0.57l0.83 0c0.36,0 0.65,-0.32 0.65,-0.74l0 -1.02c0,-0.07 -0.01,-0.11 -0.05,-0.15 -0.1,-0.12 -0.25,-0.07 -0.31,0.02 -0.04,0.07 -0.03,0.14 -0.03,0.24 0,0.17 0.02,0.95 -0.01,1.05 -0.04,0.13 -0.15,0.22 -0.32,0.22l-0.76 0 0 -3.79c0,-0.58 -0.6,-0.55 -0.76,-0.66l1.36 0c0.19,0 0.41,-0.02 0.49,0.2 0.02,0.06 0.02,0.12 0.02,0.21l0 0.92c-0,0.1 -0.01,0.13 0.03,0.2 0.09,0.15 0.35,0.11 0.35,-0.13l0 -1.02c0,-0.23 -0.05,-0.35 -0.18,-0.52 -0.09,-0.12 -0.3,-0.23 -0.47,-0.23l-2.84 0c-0.26,0 -0.48,0.24 -0.48,0.45z"/>
   <path class="fil0" d="M4.63 1.65c0,0.13 0.04,0.14 0.14,0.24l0.52 0.52 -1.7 0c-0.11,0 -0.38,-0.05 -0.38,0.19 0,0.24 0.28,0.19 0.38,0.19l1.7 0 -0.51 0.52c-0.1,0.1 -0.15,0.1 -0.15,0.25 0,0.08 0.08,0.16 0.21,0.16 0.08,0 0.15,-0.1 0.23,-0.17l0.13 -0.14c0.21,-0.2 0.42,-0.41 0.62,-0.62 0.06,-0.06 0.09,-0.11 0.1,-0.16l0 -0.06c-0.02,-0.1 -0.13,-0.18 -0.23,-0.29l-0.54 -0.54c-0.13,-0.13 -0.2,-0.25 -0.36,-0.25 -0.08,0 -0.16,0.09 -0.16,0.16z"/>
  </g>
 </g>
</svg>
