<?xml version="1.0" encoding="UTF-8"?>
<!DOCTYPE svg PUBLIC "-//W3C//DTD SVG 1.1//EN" "http://www.w3.org/Graphics/SVG/1.1/DTD/svg11.dtd">
<!-- Creator: CorelDRAW 2019 (64-Bit) -->
<svg xmlns="http://www.w3.org/2000/svg" xml:space="preserve" width="85.0642mm" height="36.2339mm" version="1.1" style="shape-rendering:geometricPrecision; text-rendering:geometricPrecision; image-rendering:optimizeQuality; fill-rule:evenodd; clip-rule:evenodd"
viewBox="0 0 2965.38 1263.13"
 xmlns:xlink="http://www.w3.org/1999/xlink"
 xmlns:xodm="http://www.corel.com/coreldraw/odm/2003">
 <defs>
  <style type="text/css">
   <![CDATA[
    .fil0 {fill:#FEFEFE}
    .fil1 {fill:#FEFEFE;fill-rule:nonzero}
    .fil2 {fill:#96989A;fill-rule:nonzero}
   ]]>
  </style>
 </defs>
 <g id="Capa_x0020_1">
  <metadata id="CorelCorpID_0Corel-Layer"/>
  <g id="_1856412454368">
   <path class="fil0" d="M1407.47 626.89c21.2,-52.3 41.23,-116.54 62.53,-169.97 3.68,-9.23 7.14,-19.03 10.47,-28.58 3.29,-9.46 7.33,-18.67 10.24,-28.73 8.13,2.01 59.09,4.03 71.65,1.42 12.26,-2.55 17.52,-19.62 22.61,-32.43 3.33,-8.37 12.88,-31.97 17.97,-37.16 9.83,0.24 17.98,1.94 28.66,2.63 9.49,0.61 20.56,2.47 30.05,3.09l180.65 17.93c-0.33,0.36 -1.01,0.36 -1.09,0.97l-11.65 7.55c-83.17,50.35 -174.12,109.97 -257.92,161.66 -18.14,11.19 -36.39,22.35 -53.88,33.86l-110.27 67.77zm-204.97 -240.77c6.15,1.52 22.45,1.38 29.29,1.66 67.56,2.71 142.93,8.26 209.58,9.86 -7.03,24.28 -31.73,87.29 -42.01,115.91 -3.65,10.18 -7.07,18.24 -10.72,28.41l-27.02 73.42c-1.96,5.87 -2.91,10.17 -6.59,14.25 -6.77,-8.17 -12.79,-19.67 -19.29,-29.78l-133.25 -213.73zm514.71 -318.98c5.09,10.98 12.53,21.45 18.45,31.06 18.9,30.65 129.26,203.14 132.14,212.86 -7.35,-1.82 -22.09,-3.1 -29.72,-3.59l-215.91 -20.8c0.22,-9.05 17.08,-44.18 21.56,-55.06l59.34 -138.3c2.15,-5.41 3.59,-7.98 5.79,-13.08 2.66,-6.17 2.08,-9.94 8.35,-13.09zm-59.03 10.23c-4.35,15.05 -15.14,36.32 -21.48,51.74l-21.92 51.45c-5,12.15 -9.63,23.91 -15.08,35.68l-59.21 138.39c-8.56,1.58 -27.88,-0.64 -38.13,-1.05l-264.98 -15.46c7.56,-2.24 95.71,-58.64 105.12,-64.4l52.59 -33.02c17.88,-11.66 34.45,-21.46 52.52,-33.07 17.61,-11.31 34.03,-21.49 51.33,-32.16l105.59 -65.77c11.93,-7.13 43.2,-29.22 53.66,-32.32zm0 0l0 0zm-513.32 296.27c5.38,25.88 38.07,69.81 52.96,94.24l107.06 171.32c19.68,30.49 34.31,67.12 72.59,59.16 14.7,-3.05 27.38,-13.75 38.3,-20.45l106.96 -66.56c48.37,-29.65 94.51,-60.13 143.38,-89.94 0.2,-0.12 239.85,-148.35 249.1,-157.31 33.37,-32.34 -5.31,-75.02 -22.54,-103.85l-108.18 -172.18c-12.91,-21.06 -39.49,-69.96 -56.7,-80.82 -23.1,-14.56 -41.53,-4.9 -62.54,8.93l-143.51 89.85c-8.99,5.65 -19.28,12.22 -28.91,18.17 -61.23,37.76 -140.06,90.32 -200.25,125.21l-114.54 71.72c-13.28,8.08 -22.55,13.73 -29.05,26.52 -2.05,4.04 -1.89,3.4 -3.18,8.04 -1.57,5.6 -2.38,11.02 -0.94,17.95z"/>
   <path class="fil0" d="M1114.54 767.28c4.3,20.69 22.77,22.96 32.79,18.29l68.94 -42.71c16.81,-9.95 24.49,-15.65 20.75,-33.65 -3.16,-15.19 -19.79,-19.79 -31.98,-14.36l-68.92 42.7c-11.17,6.75 -24.74,14.54 -21.58,29.73z"/>
   <path class="fil0" d="M986.98 565.46c3.27,15.74 14.87,21.37 30.28,18.17l56.84 -35.3c16.72,-16.15 2.05,-44.21 -21.38,-39.34 -7.28,1.51 -32.21,18.34 -39.46,23.06 -12.6,8.21 -30.03,15.32 -26.27,33.41z"/>
   <path class="fil0" d="M970.28 740.18c9.98,48.02 73.98,-8.33 76.09,-10.86 13.96,-16.8 0.43,-41.74 -22.82,-36.91 -8.52,1.77 -43.54,23.97 -48.25,29.12 -3.69,4.03 -6.4,12 -5.02,18.65z"/>
  </g>
  <path class="fil1" d="M75.42 862.92c0,-57.72 59.26,-87.74 136.99,-87.74 46.95,0 88.51,8.47 123.91,20.78 3.85,1.54 8.46,3.08 12.31,3.08 19.24,0 30.79,-16.93 30.79,-32.32 0,-18.47 -10.78,-26.94 -21.55,-30.79 -41.56,-15.39 -93.12,-25.4 -153.16,-25.4 -130.06,0 -199.33,72.35 -199.33,157.78 0,189.33 327.09,126.22 327.09,240.12 0,66.96 -58.49,88.51 -134.69,88.51 -66.19,0 -116.98,-16.16 -151.62,-31.56 -5.39,-2.31 -10,-3.08 -14.62,-3.08 -19.24,0 -31.56,15.39 -31.56,32.33 0,13.85 10.01,26.94 21.55,31.56 44.64,19.24 106.21,36.94 183.17,36.94 119.29,0 197.02,-63.11 197.02,-150.08 0,-203.18 -326.32,-116.99 -326.32,-250.13l0 0z"/>
  <path id="1" class="fil1" d="M795.8 1170.78c-5.39,0 -9.23,0.77 -13.85,3.08 -28.48,14.62 -57.72,23.86 -103.9,23.86 -83.12,0 -126.99,-44.64 -134.69,-113.91l260.91 0c21.55,0 35.4,-15.39 35.4,-34.63 0,-102.36 -64.65,-193.95 -183.17,-193.95 -127.76,0 -183.94,100.05 -183.94,203.95 0,129.3 73.88,203.95 199.33,203.95 66.96,0 100.82,-14.62 134.69,-33.86 10.78,-6.16 20.01,-16.16 20.01,-28.48 0,-17.7 -14.62,-30.01 -30.79,-30.01zm-139.3 -256.29c49.25,0 109.29,32.33 113.9,112.37l-227.04 0c4.62,-80.04 63.88,-112.37 113.14,-112.37z"/>
  <path id="2" class="fil1" d="M1147.52 855.23c-68.5,0 -110.83,35.4 -143.15,70.81l0 -31.56c0,-20.01 -16.16,-35.4 -35.4,-35.4 -19.24,0 -34.63,15.39 -34.63,35.4l0 330.17c0,19.24 15.39,34.63 34.63,34.63 19.24,0 35.4,-15.39 35.4,-34.63l0 -230.89c30.79,-38.48 70.81,-73.88 126.22,-73.88 60.03,0 84.66,35.4 84.66,93.89l0 210.88c0,19.24 15.39,34.63 34.63,34.63 19.24,0 35.4,-15.39 35.4,-34.63l0 -218.58c0,-82.35 -50.02,-150.85 -137.76,-150.85z"/>
  <path id="3" class="fil1" d="M1565.43 855.23c-93.12,0 -186.25,73.11 -186.25,203.95 0,130.84 93.13,203.95 186.25,203.95 53.88,0 96.2,-21.55 131.61,-58.49l0 20.01c0,19.24 15.39,34.63 35.4,34.63 19.24,0 34.63,-15.39 34.63,-34.63l0 -499.49c0,-20.01 -15.39,-35.4 -34.63,-35.4 -20.01,0 -35.4,15.39 -35.4,35.4l0 188.56c-35.4,-36.94 -77.73,-58.49 -131.61,-58.49zm10.01 342.48c-73.12,0 -126.22,-47.72 -126.22,-138.53 0,-90.82 53.1,-138.54 126.22,-138.54 50.02,0 91.59,24.63 121.6,57.72l0 161.62c-30.01,33.09 -71.58,57.72 -121.6,57.72z"/>
  <path id="4" class="fil2" d="M2446.65 714.39l-25.4 0c-20.78,0 -39.25,13.85 -46.95,32.32l-174.71 435.61 -174.71 -435.61c-7.7,-18.47 -26.17,-32.32 -46.95,-32.32l-25.4 0c-27.7,0 -50.02,23.09 -50.02,50.8l0 459.47c0,19.24 15.39,34.63 34.63,34.63 19.24,0 35.4,-15.39 35.4,-34.63l0 -437.15 177.78 439.46c8.47,19.24 26.94,32.33 49.26,32.33 22.32,0 40.79,-13.08 49.25,-32.33l177.79 -439.46 0 437.15c0,19.24 16.16,34.63 35.4,34.63 19.24,0 34.63,-15.39 34.63,-34.63l0 -459.47c0,-27.71 -22.32,-50.8 -50.03,-50.8z"/>
  <path id="5" class="fil2" d="M2921.52 1170.78c-5.39,0 -9.23,0.77 -13.85,3.08 -28.48,14.62 -57.72,23.86 -103.9,23.86 -83.12,0 -126.99,-44.64 -134.69,-113.91l260.91 0c21.55,0 35.4,-15.39 35.4,-34.63 0,-102.36 -64.65,-193.95 -183.17,-193.95 -127.76,0 -183.94,100.05 -183.94,203.95 0,129.3 73.88,203.95 199.33,203.95 66.96,0 100.82,-14.62 134.69,-33.86 10.78,-6.16 20.01,-16.16 20.01,-28.48 0,-17.7 -14.62,-30.01 -30.79,-30.01zm-139.3 -256.29c49.25,0 109.29,32.33 113.9,112.37l-227.04 0c4.62,-80.04 63.88,-112.37 113.14,-112.37z"/>
 </g>
</svg>
