<?xml version="1.0" encoding="UTF-8"?>
<!DOCTYPE svg PUBLIC "-//W3C//DTD SVG 1.1//EN" "http://www.w3.org/Graphics/SVG/1.1/DTD/svg11.dtd">
<!-- Creator: CorelDRAW 2019 (64-Bit) -->
<svg xmlns="http://www.w3.org/2000/svg" xml:space="preserve" width="14.1668mm" height="6.0345mm" version="1.1" style="shape-rendering:geometricPrecision; text-rendering:geometricPrecision; image-rendering:optimizeQuality; fill-rule:evenodd; clip-rule:evenodd"
viewBox="0 0 73.06 31.12"
 xmlns:xlink="http://www.w3.org/1999/xlink"
 xmlns:xodm="http://www.corel.com/coreldraw/odm/2003">
 <defs>
  <style type="text/css">
   <![CDATA[
    .fil0 {fill:#FEFEFE}
    .fil1 {fill:#FEFEFE;fill-rule:nonzero}
    .fil2 {fill:#96989A;fill-rule:nonzero}
   ]]>
  </style>
 </defs>
 <g id="Capa_x0020_1">
  <metadata id="CorelCorpID_0Corel-Layer"/>
  <g id="_1856406045120">
   <path class="fil0" d="M34.68 15.45c0.52,-1.29 1.02,-2.87 1.54,-4.19 0.09,-0.23 0.18,-0.47 0.26,-0.7 0.08,-0.23 0.18,-0.46 0.25,-0.71 0.2,0.05 1.46,0.1 1.77,0.04 0.3,-0.06 0.43,-0.48 0.56,-0.8 0.08,-0.21 0.32,-0.79 0.44,-0.92 0.24,0.01 0.44,0.05 0.71,0.06 0.23,0.01 0.51,0.06 0.74,0.08l4.45 0.44c-0.01,0.01 -0.02,0.01 -0.03,0.02l-0.29 0.19c-2.05,1.24 -4.29,2.71 -6.35,3.98 -0.45,0.28 -0.9,0.55 -1.33,0.83l-2.72 1.67zm-5.05 -5.93c0.15,0.04 0.55,0.03 0.72,0.04 1.66,0.07 3.52,0.2 5.16,0.24 -0.17,0.6 -0.78,2.15 -1.04,2.86 -0.09,0.25 -0.17,0.45 -0.26,0.7l-0.67 1.81c-0.05,0.14 -0.07,0.25 -0.16,0.35 -0.17,-0.2 -0.31,-0.48 -0.47,-0.73l-3.28 -5.27zm12.68 -7.86c0.13,0.27 0.31,0.53 0.45,0.76 0.47,0.76 3.18,5 3.26,5.24 -0.18,-0.04 -0.54,-0.08 -0.73,-0.09l-5.32 -0.51c0.01,-0.22 0.42,-1.09 0.53,-1.36l1.46 -3.41c0.05,-0.13 0.09,-0.2 0.14,-0.32 0.07,-0.15 0.05,-0.24 0.21,-0.32zm-1.45 0.25c-0.11,0.37 -0.37,0.9 -0.53,1.27l-0.54 1.27c-0.12,0.3 -0.24,0.59 -0.37,0.88l-1.46 3.41c-0.21,0.04 -0.69,-0.02 -0.94,-0.03l-6.53 -0.38c0.19,-0.06 2.36,-1.45 2.59,-1.59l1.3 -0.81c0.44,-0.29 0.85,-0.53 1.29,-0.81 0.43,-0.28 0.84,-0.53 1.27,-0.79l2.6 -1.62c0.29,-0.18 1.06,-0.72 1.32,-0.8zm0 0l0 0zm-12.65 7.3c0.13,0.64 0.94,1.72 1.3,2.32l2.64 4.22c0.49,0.75 0.85,1.65 1.79,1.46 0.36,-0.08 0.67,-0.34 0.94,-0.5l2.64 -1.64c1.19,-0.73 2.33,-1.48 3.53,-2.22 0,-0 5.91,-3.65 6.14,-3.88 0.82,-0.8 -0.13,-1.85 -0.56,-2.56l-2.67 -4.24c-0.32,-0.52 -0.97,-1.72 -1.4,-1.99 -0.57,-0.36 -1.02,-0.12 -1.54,0.22l-3.54 2.21c-0.22,0.14 -0.47,0.3 -0.71,0.45 -1.51,0.93 -3.45,2.22 -4.93,3.08l-2.82 1.77c-0.33,0.2 -0.56,0.34 -0.72,0.65 -0.05,0.1 -0.05,0.08 -0.08,0.2 -0.04,0.14 -0.06,0.27 -0.02,0.44z"/>
   <path class="fil0" d="M27.46 18.9c0.11,0.51 0.56,0.57 0.81,0.45l1.7 -1.05c0.41,-0.24 0.6,-0.39 0.51,-0.83 -0.08,-0.37 -0.49,-0.49 -0.79,-0.35l-1.7 1.05c-0.27,0.17 -0.61,0.36 -0.53,0.73z"/>
   <path class="fil0" d="M24.32 13.93c0.08,0.39 0.37,0.53 0.75,0.45l1.4 -0.87c0.41,-0.4 0.05,-1.09 -0.53,-0.97 -0.18,0.04 -0.79,0.45 -0.97,0.57 -0.31,0.2 -0.74,0.38 -0.65,0.82z"/>
   <path class="fil0" d="M23.91 18.24c0.25,1.18 1.82,-0.21 1.87,-0.27 0.34,-0.41 0.01,-1.03 -0.56,-0.91 -0.21,0.04 -1.07,0.59 -1.19,0.72 -0.09,0.1 -0.16,0.3 -0.12,0.46z"/>
  </g>
  <path class="fil1" d="M1.86 21.26c0,-1.42 1.46,-2.16 3.38,-2.16 1.16,0 2.18,0.21 3.05,0.51 0.09,0.04 0.21,0.08 0.3,0.08 0.47,0 0.76,-0.42 0.76,-0.8 0,-0.45 -0.27,-0.66 -0.53,-0.76 -1.02,-0.38 -2.29,-0.63 -3.77,-0.63 -3.2,0 -4.91,1.78 -4.91,3.89 0,4.66 8.06,3.11 8.06,5.92 0,1.65 -1.44,2.18 -3.32,2.18 -1.63,0 -2.88,-0.4 -3.74,-0.78 -0.13,-0.06 -0.25,-0.08 -0.36,-0.08 -0.47,0 -0.78,0.38 -0.78,0.8 0,0.34 0.25,0.66 0.53,0.78 1.1,0.47 2.62,0.91 4.51,0.91 2.94,0 4.85,-1.55 4.85,-3.7 0,-5.01 -8.04,-2.88 -8.04,-6.16l0 0z"/>
  <path id="1" class="fil1" d="M19.61 28.85c-0.13,0 -0.23,0.02 -0.34,0.08 -0.7,0.36 -1.42,0.59 -2.56,0.59 -2.05,0 -3.13,-1.1 -3.32,-2.81l6.43 0c0.53,0 0.87,-0.38 0.87,-0.85 0,-2.52 -1.59,-4.78 -4.51,-4.78 -3.15,0 -4.53,2.46 -4.53,5.02 0,3.19 1.82,5.03 4.91,5.03 1.65,0 2.48,-0.36 3.32,-0.83 0.27,-0.15 0.49,-0.4 0.49,-0.7 0,-0.44 -0.36,-0.74 -0.76,-0.74zm-3.43 -6.31c1.21,0 2.69,0.8 2.81,2.77l-5.59 0c0.11,-1.97 1.57,-2.77 2.79,-2.77z"/>
  <path id="2" class="fil1" d="M28.27 21.07c-1.69,0 -2.73,0.87 -3.53,1.74l0 -0.78c0,-0.49 -0.4,-0.87 -0.87,-0.87 -0.47,0 -0.85,0.38 -0.85,0.87l0 8.13c0,0.47 0.38,0.85 0.85,0.85 0.47,0 0.87,-0.38 0.87,-0.85l0 -5.69c0.76,-0.95 1.74,-1.82 3.11,-1.82 1.48,0 2.09,0.87 2.09,2.31l0 5.2c0,0.47 0.38,0.85 0.85,0.85 0.47,0 0.87,-0.38 0.87,-0.85l0 -5.39c0,-2.03 -1.23,-3.72 -3.39,-3.72z"/>
  <path id="3" class="fil1" d="M38.57 21.07c-2.29,0 -4.59,1.8 -4.59,5.02 0,3.22 2.29,5.03 4.59,5.03 1.33,0 2.37,-0.53 3.24,-1.44l0 0.49c0,0.47 0.38,0.85 0.87,0.85 0.47,0 0.85,-0.38 0.85,-0.85l0 -12.31c0,-0.49 -0.38,-0.87 -0.85,-0.87 -0.49,0 -0.87,0.38 -0.87,0.87l0 4.65c-0.87,-0.91 -1.92,-1.44 -3.24,-1.44zm0.25 8.44c-1.8,0 -3.11,-1.18 -3.11,-3.41 0,-2.24 1.31,-3.41 3.11,-3.41 1.23,0 2.26,0.61 3,1.42l0 3.98c-0.74,0.82 -1.76,1.42 -3,1.42z"/>
  <path id="4" class="fil2" d="M60.28 17.6l-0.63 0c-0.51,0 -0.97,0.34 -1.16,0.8l-4.3 10.73 -4.3 -10.73c-0.19,-0.45 -0.65,-0.8 -1.16,-0.8l-0.63 0c-0.68,0 -1.23,0.57 -1.23,1.25l0 11.32c0,0.47 0.38,0.85 0.85,0.85 0.47,0 0.87,-0.38 0.87,-0.85l0 -10.77 4.38 10.83c0.21,0.47 0.66,0.8 1.21,0.8 0.55,0 1.01,-0.32 1.21,-0.8l4.38 -10.83 0 10.77c0,0.47 0.4,0.85 0.87,0.85 0.47,0 0.85,-0.38 0.85,-0.85l0 -11.32c0,-0.68 -0.55,-1.25 -1.23,-1.25z"/>
  <path id="5" class="fil2" d="M71.98 28.85c-0.13,0 -0.23,0.02 -0.34,0.08 -0.7,0.36 -1.42,0.59 -2.56,0.59 -2.05,0 -3.13,-1.1 -3.32,-2.81l6.43 0c0.53,0 0.87,-0.38 0.87,-0.85 0,-2.52 -1.59,-4.78 -4.51,-4.78 -3.15,0 -4.53,2.46 -4.53,5.02 0,3.19 1.82,5.03 4.91,5.03 1.65,0 2.48,-0.36 3.32,-0.83 0.27,-0.15 0.49,-0.4 0.49,-0.7 0,-0.44 -0.36,-0.74 -0.76,-0.74zm-3.43 -6.31c1.21,0 2.69,0.8 2.81,2.77l-5.59 0c0.11,-1.97 1.57,-2.77 2.79,-2.77z"/>
 </g>
</svg>
