<?xml version="1.0" encoding="UTF-8"?>
<!DOCTYPE svg PUBLIC "-//W3C//DTD SVG 1.1//EN" "http://www.w3.org/Graphics/SVG/1.1/DTD/svg11.dtd">
<!-- Creator: CorelDRAW 2019 (64-Bit) -->
<svg xmlns="http://www.w3.org/2000/svg" xml:space="preserve" width="4.0386mm" height="4.0386mm" version="1.1" style="shape-rendering:geometricPrecision; text-rendering:geometricPrecision; image-rendering:optimizeQuality; fill-rule:evenodd; clip-rule:evenodd"
viewBox="0 0 12.13 12.13"
 xmlns:xlink="http://www.w3.org/1999/xlink"
 xmlns:xodm="http://www.corel.com/coreldraw/odm/2003">
 <defs>
  <style type="text/css">
   <![CDATA[
    .fil1 {fill:#FEFEFE}
    .fil0 {fill:#A8CF45}
   ]]>
  </style>
 </defs>
 <g id="Capa_x0020_1">
  <metadata id="CorelCorpID_0Corel-Layer"/>
  <circle class="fil0" cx="6.07" cy="6.07" r="6.07"/>
  <path class="fil1" d="M5.16 2.44l0 2.51 -2.51 0c-0.54,0 -1.04,0.55 -1.04,1.02 0,0.36 0.06,0.61 0.32,0.88 0.15,0.15 0.42,0.32 0.71,0.32l2.51 0 0 2.51c0,0.52 0.52,1.04 1.04,1.04 0.37,0 0.61,-0.07 0.86,-0.32 0.15,-0.15 0.32,-0.42 0.32,-0.72l0 -2.51 2.51 0c0.52,0 1.04,-0.52 1.04,-1.04 0,-0.37 -0.07,-0.61 -0.32,-0.86 -0.15,-0.15 -0.42,-0.32 -0.72,-0.32l-2.51 0 0 -2.51c0,-0.54 -0.54,-1.04 -1.02,-1.04l-0.01 0c-0.22,0 -0.37,0.01 -0.57,0.11 -0.32,0.17 -0.62,0.53 -0.62,0.93z"/>
 </g>
</svg>
