<?xml version="1.0" encoding="UTF-8"?>
<!DOCTYPE svg PUBLIC "-//W3C//DTD SVG 1.1//EN" "http://www.w3.org/Graphics/SVG/1.1/DTD/svg11.dtd">
<!-- Creator: CorelDRAW 2019 (64-Bit) -->
<svg xmlns="http://www.w3.org/2000/svg" xml:space="preserve" width="3mm" height="3mm" version="1.1" style="shape-rendering:geometricPrecision; text-rendering:geometricPrecision; image-rendering:optimizeQuality; fill-rule:evenodd; clip-rule:evenodd"
viewBox="0 0 3.86 3.86"
 xmlns:xlink="http://www.w3.org/1999/xlink"
 xmlns:xodm="http://www.corel.com/coreldraw/odm/2003">
 <defs>
  <style type="text/css">
   <![CDATA[
    .fil0 {fill:#A8CF45}
   ]]>
  </style>
 </defs>
 <g id="Capa_x0020_1">
  <metadata id="CorelCorpID_0Corel-Layer"/>
  <g id="_1856462051440">
   <path class="fil0" d="M0.97 1.6c0,0.1 0.16,0.33 0.22,0.42l0.29 0.33c0.04,0.04 0.05,0.05 0.09,0.08 0.01,0.01 0.02,0.02 0.04,0.04l0.08 0.07c0.12,0.09 0.19,0.15 0.33,0.23 0.09,0.05 0.17,0.1 0.25,0.1 0.08,0 0.18,-0.12 0.25,-0.19 0.04,-0.04 0.07,-0.07 0.11,-0.11 0.16,-0.16 0.22,-0.07 0.34,0.05l0.31 0.31c0.09,0.09 0.2,0.18 0.06,0.32 -0.02,0.02 -0.03,0.03 -0.05,0.05 -0.06,0.05 -0.09,0.07 -0.15,0.14 -0.03,0.03 -0.05,0.06 -0.09,0.1 -0.16,0.14 -0.41,0.09 -0.62,0.03 -0.05,-0.01 -0.09,-0.03 -0.14,-0.05 -0.12,-0.05 -0.15,-0.07 -0.27,-0.12 -0.1,-0.05 -0.28,-0.16 -0.37,-0.22 -0.11,-0.07 -0.23,-0.17 -0.33,-0.25 -0.02,-0.02 -0.03,-0.03 -0.05,-0.05 -0.02,-0.02 -0.03,-0.03 -0.05,-0.05 -0.03,-0.04 -0.07,-0.06 -0.1,-0.09l-0.36 -0.42c-0.02,-0.02 -0.02,-0.04 -0.04,-0.06 -0.02,-0.02 -0.03,-0.04 -0.04,-0.06 -0.1,-0.16 -0.21,-0.32 -0.28,-0.49 -0.09,-0.21 -0.27,-0.62 -0.11,-0.87 0.04,-0.07 0.21,-0.23 0.28,-0.29 0.2,-0.2 0.24,-0.1 0.52,0.18 0.05,0.05 0.1,0.1 0.16,0.16 0.21,0.21 0.14,0.23 -0.08,0.45 -0.03,0.03 -0.08,0.08 -0.11,0.11 -0.04,0.03 -0.08,0.08 -0.08,0.15zm-0.97 -0.54c0,0.51 0.33,1.05 0.63,1.46l0.36 0.41 0.23 0.2c0.13,0.12 0.36,0.27 0.51,0.36 0.26,0.15 0.7,0.36 1.02,0.36 0.15,0 0.25,-0.01 0.37,-0.09 0.11,-0.07 0.12,-0.1 0.2,-0.18 0.14,-0.14 0.31,-0.27 0.31,-0.47 0,-0.13 -0.07,-0.22 -0.13,-0.29 -0.1,-0.1 -0.46,-0.48 -0.54,-0.53 -0.18,-0.1 -0.35,-0.02 -0.48,0.11l-0.23 0.23c-0.05,-0.03 -0.11,-0.06 -0.16,-0.09l-0.29 -0.22c-0.05,-0.04 -0.14,-0.14 -0.2,-0.19 -0.01,-0.01 -0.02,-0.02 -0.03,-0.03 -0.02,-0.02 -0.02,-0.02 -0.03,-0.04 -0.15,-0.17 -0.2,-0.24 -0.32,-0.46 0.05,-0.03 0.3,-0.29 0.33,-0.34 0.07,-0.12 0.08,-0.26 0.01,-0.38 -0.06,-0.1 -0.22,-0.25 -0.3,-0.33 -0.07,-0.07 -0.14,-0.15 -0.21,-0.21l-0.06 -0.05c-0.02,-0.02 -0.04,-0.03 -0.07,-0.04 -0.29,-0.14 -0.46,0.09 -0.64,0.27 -0.15,0.15 -0.27,0.27 -0.27,0.53z"/>
   <path class="fil0" d="M2.03 0.09c0,0.04 -0,0.07 0.04,0.11 0.04,0.03 0.17,0.05 0.25,0.07 0.63,0.18 1.1,0.65 1.28,1.28 0.05,0.16 0.02,0.28 0.16,0.28 0.05,0 0.11,-0.05 0.11,-0.1 0,-0.17 -0.14,-0.5 -0.21,-0.65 -0.19,-0.38 -0.6,-0.77 -1.01,-0.94 -0.05,-0.02 -0.1,-0.04 -0.16,-0.06 -0.07,-0.02 -0.27,-0.08 -0.35,-0.08 -0.04,0 -0.05,0.01 -0.07,0.03 -0.02,0.02 -0.04,0.03 -0.04,0.06z"/>
   <path class="fil0" d="M3.03 1.86l0.04 0c0.04,0 0.09,-0.05 0.09,-0.11 0,-0.22 -0.19,-0.54 -0.35,-0.7 -0.13,-0.13 -0.3,-0.25 -0.49,-0.31 -0.08,-0.03 -0.26,-0.11 -0.32,0.01 -0.03,0.07 -0,0.14 0.09,0.16 0.2,0.04 0.38,0.13 0.52,0.26l0.07 0.07c0.11,0.14 0.18,0.24 0.23,0.42 0.01,0.05 0.02,0.18 0.11,0.18z"/>
  </g>
 </g>
</svg>
