<?xml version="1.0" encoding="UTF-8"?>
<!DOCTYPE svg PUBLIC "-//W3C//DTD SVG 1.1//EN" "http://www.w3.org/Graphics/SVG/1.1/DTD/svg11.dtd">
<!-- Creator: CorelDRAW 2019 (64-Bit) -->
<svg xmlns="http://www.w3.org/2000/svg" xml:space="preserve" width="3mm" height="3mm" version="1.1" style="shape-rendering:geometricPrecision; text-rendering:geometricPrecision; image-rendering:optimizeQuality; fill-rule:evenodd; clip-rule:evenodd"
viewBox="0 0 8.42 8.42"
 xmlns:xlink="http://www.w3.org/1999/xlink"
 xmlns:xodm="http://www.corel.com/coreldraw/odm/2003">
 <defs>
  <style type="text/css">
   <![CDATA[
    .fil0 {fill:#A8CF45}
   ]]>
  </style>
 </defs>
 <g id="Capa_x0020_1">
  <metadata id="CorelCorpID_0Corel-Layer"/>
  <path class="fil0" d="M-0 4.05c0,0.74 0.09,1.34 0.38,1.94 0.06,0.12 0.11,0.23 0.17,0.34 0.25,0.42 0.26,0.4 0.54,0.73 0.36,0.43 0.83,0.73 1.32,0.98 0.38,0.19 1.07,0.39 1.64,0.39 0.59,0 0.93,-0.03 1.47,-0.21 0.13,-0.04 0.62,-0.23 0.71,-0.32 0.23,-0.23 0.01,-0.54 -0.16,-0.54 -0.23,0 -0.25,0.06 -0.48,0.16 -2.3,0.99 -4.98,-0.7 -4.98,-3.3 0,-1.97 1.61,-3.58 3.58,-3.58 1.98,0 3.58,1.6 3.58,3.62 0,1.74 -1.37,1.91 -1.55,1.02 -0.08,-0.42 0.01,-2.55 -0.04,-2.76 -0.05,-0.21 -0.34,-0.38 -0.56,-0.13 -0.08,0.09 -0.06,0.17 -0.06,0.32 -0.05,-0.03 -0.08,-0.08 -0.14,-0.12 -0.06,-0.04 -0.09,-0.07 -0.15,-0.11 -0.67,-0.46 -1.56,-0.52 -2.28,-0.11 -1.24,0.72 -1.45,2.38 -0.46,3.37 0.52,0.52 1.32,0.76 2.06,0.55 0.16,-0.04 0.29,-0.13 0.29,-0.32 0,-0.16 -0.13,-0.31 -0.31,-0.31 -0.17,0 -0.62,0.2 -1.17,-0.08 -0.49,-0.24 -0.85,-0.73 -0.85,-1.27 0,-0.37 0.05,-0.64 0.26,-0.94 0.03,-0.04 0.05,-0.07 0.08,-0.1 0.18,-0.2 0.23,-0.25 0.5,-0.39 0.58,-0.31 1.42,-0.13 1.82,0.39 0.69,0.89 0.06,1.64 0.55,2.57 0.08,0.15 0.24,0.3 0.38,0.4 0.62,0.42 1.43,0.16 1.85,-0.48 0.25,-0.38 0.37,-0.86 0.4,-1.36l0 -0.37c-0.03,-0.58 -0.17,-1.15 -0.39,-1.58 -0.49,-0.97 -1.07,-1.55 -2.04,-2.04 -0.47,-0.24 -1,-0.37 -1.55,-0.39l-0.38 0c-0.81,0.04 -1.62,0.3 -2.27,0.76l-0.29 0.22c-0.27,0.21 -0.53,0.51 -0.73,0.78 -0.42,0.57 -0.78,1.5 -0.78,2.28z"/>
 </g>
</svg>
