<?xml version="1.0" encoding="UTF-8"?>
<!DOCTYPE svg PUBLIC "-//W3C//DTD SVG 1.1//EN" "http://www.w3.org/Graphics/SVG/1.1/DTD/svg11.dtd">
<!-- Creator: CorelDRAW 2019 (64-Bit) -->
<svg xmlns="http://www.w3.org/2000/svg" xml:space="preserve" width="2.2845mm" height="2.2623mm" version="1.1" style="shape-rendering:geometricPrecision; text-rendering:geometricPrecision; image-rendering:optimizeQuality; fill-rule:evenodd; clip-rule:evenodd"
viewBox="0 0 2.35 2.32"
 xmlns:xlink="http://www.w3.org/1999/xlink"
 xmlns:xodm="http://www.corel.com/coreldraw/odm/2003">
 <defs>
  <style type="text/css">
   <![CDATA[
    .fil0 {fill:#A8CF45}
   ]]>
  </style>
 </defs>
 <g id="Capa_x0020_1">
  <metadata id="CorelCorpID_0Corel-Layer"/>
  <g id="_1856436289344">
   <path class="fil0" d="M0.22 0.87c0,-0.14 0.06,-0.32 0.15,-0.42 0.1,-0.11 0.2,-0.18 0.36,-0.22 0.1,-0.02 0.2,-0.02 0.29,0 0.1,0.02 0.2,0.07 0.28,0.14 0.02,0.02 0.05,0.04 0.06,0.06 0.06,0.08 0.06,0.06 0.11,0.17 0.06,0.12 0.07,0.28 0.04,0.41 -0.02,0.1 -0.07,0.2 -0.14,0.27 -0.01,0.01 -0.01,0.01 -0.02,0.02 -0.01,0.01 -0.01,0.01 -0.02,0.02 -0.16,0.15 -0.39,0.23 -0.61,0.17 -0.1,-0.02 -0.2,-0.07 -0.28,-0.14 -0.08,-0.08 -0.12,-0.12 -0.18,-0.23 -0.02,-0.04 -0.03,-0.08 -0.04,-0.12 -0.01,-0.04 -0.02,-0.1 -0.02,-0.15zm-0.22 -0.03c0,0.11 0.01,0.22 0.05,0.33 0.01,0.02 0.02,0.05 0.03,0.07 0.09,0.18 0.24,0.34 0.42,0.42 0.19,0.08 0.39,0.11 0.59,0.06 0.05,-0.01 0.11,-0.03 0.16,-0.05 0.29,-0.14 0.51,-0.44 0.51,-0.76 0,-0.13 -0.01,-0.2 -0.05,-0.33 -0.03,-0.08 -0.06,-0.13 -0.11,-0.21 -0.15,-0.21 -0.42,-0.37 -0.69,-0.37 -0.21,0 -0.36,0.04 -0.53,0.16 -0.08,0.05 -0.16,0.14 -0.21,0.21 -0.03,0.04 -0.05,0.08 -0.08,0.13 -0.05,0.09 -0.08,0.23 -0.08,0.34z"/>
   <path class="fil0" d="M1.44 1.73c0.01,0.02 0.44,0.43 0.48,0.47 0.09,0.08 0.11,0.12 0.24,0.12 0.1,0 0.2,-0.1 0.2,-0.2 0,-0.12 -0.04,-0.15 -0.12,-0.23 -0.04,-0.04 -0.46,-0.46 -0.48,-0.47 -0.01,0.01 -0.05,0.06 -0.07,0.09 -0.05,0.06 -0.14,0.14 -0.2,0.19 -0.01,0.01 -0.03,0.02 -0.04,0.03z"/>
  </g>
 </g>
</svg>
