<?xml version="1.0" encoding="UTF-8"?>
<!DOCTYPE svg PUBLIC "-//W3C//DTD SVG 1.1//EN" "http://www.w3.org/Graphics/SVG/1.1/DTD/svg11.dtd">
<!-- Creator: CorelDRAW 2019 (64-Bit) -->
<svg xmlns="http://www.w3.org/2000/svg" xml:space="preserve" width="5.441mm" height="5.2166mm" version="1.1" style="shape-rendering:geometricPrecision; text-rendering:geometricPrecision; image-rendering:optimizeQuality; fill-rule:evenodd; clip-rule:evenodd"
viewBox="0 0 18.73 17.96"
 xmlns:xlink="http://www.w3.org/1999/xlink"
 xmlns:xodm="http://www.corel.com/coreldraw/odm/2003">
 <defs>
  <style type="text/css">
   <![CDATA[
    .fil0 {fill:#FEFEFE}
   ]]>
  </style>
 </defs>
 <g id="Capa_x0020_1">
  <metadata id="CorelCorpID_0Corel-Layer"/>
  <g id="_1856436238240">
   <path class="fil0" d="M15.44 3.33l-0.04 0.04 0.04 -0.04zm3.29 -2.81l0 0.19c-0,0.04 -0.01,0.08 -0.01,0.12l-1.06 7.13c-0.18,1.2 -0.37,2.38 -0.53,3.57l-0.53 3.57c-0.05,0.27 -0.26,0.48 -0.51,0.52 -0.23,0.03 -0.62,-0.15 -0.8,-0.21l-6.11 -2.09c-0.27,-0.09 -0.5,-0.17 -0.76,-0.27 -0.22,-0.08 -0.54,-0.2 -0.77,-0.25 0.05,-0.18 2.15,-2.67 2.43,-2.99 0.17,-0.2 0.32,-0.37 0.49,-0.58l1.94 -2.34c0.34,-0.4 0.64,-0.78 0.97,-1.18l1.46 -1.76c0.1,-0.11 0.44,-0.48 0.47,-0.59 -0.14,0.04 -0.98,0.8 -1.12,0.93 -0.06,0.05 -0.09,0.09 -0.15,0.14l-2.84 2.43c-0.07,0.06 -0.09,0.08 -0.16,0.14 -0.07,0.06 -0.09,0.06 -0.16,0.13l-0.95 0.81c-0.06,0.05 -0.09,0.09 -0.15,0.14l-4.26 3.64c-0.13,0.12 -0.2,0.13 -0.3,0.28l-4.58 -1.57c-0.28,-0.09 -0.51,-0.14 -0.66,-0.37 -0.04,-0.06 -0.06,-0.13 -0.07,-0.2l0 -0.17c0.02,-0.15 0.09,-0.3 0.19,-0.38l3.36 -1.77c0.24,-0.12 0.43,-0.23 0.67,-0.35l2.02 -1.05c1.15,-0.57 2.53,-1.35 3.69,-1.94 0.13,-0.06 0.23,-0.11 0.34,-0.17 0.23,-0.12 0.42,-0.23 0.67,-0.35 0.13,-0.06 0.22,-0.1 0.34,-0.17l5.72 -2.99c0.47,-0.24 1.06,-0.69 1.45,-0.43 0.16,0.11 0.25,0.23 0.27,0.43zm-3.26 2.78l-0.04 0.04 0.04 -0.04zm0.04 -0.04l-0.04 0.04 0.04 -0.04zm0 0l0 0z"/>
   <path class="fil0" d="M6.8 17.23c0,0.41 0.25,0.73 0.59,0.73 0.44,0 0.59,-0.37 0.79,-0.64 0.21,-0.28 0.4,-0.54 0.61,-0.82 0.13,-0.18 1.15,-1.51 1.2,-1.69l-1.58 -0.54c-0.25,-0.08 -1.44,-0.51 -1.61,-0.52l0 3.48z"/>
  </g>
 </g>
</svg>
