<?xml version="1.0" encoding="UTF-8"?>
<!DOCTYPE svg PUBLIC "-//W3C//DTD SVG 1.1//EN" "http://www.w3.org/Graphics/SVG/1.1/DTD/svg11.dtd">
<!-- Creator: CorelDRAW 2019 (64-Bit) -->
<svg xmlns="http://www.w3.org/2000/svg" xml:space="preserve" width="3.616mm" height="3.616mm" version="1.1" style="shape-rendering:geometricPrecision; text-rendering:geometricPrecision; image-rendering:optimizeQuality; fill-rule:evenodd; clip-rule:evenodd"
viewBox="0 0 4.95 4.95"
 xmlns:xlink="http://www.w3.org/1999/xlink"
 xmlns:xodm="http://www.corel.com/coreldraw/odm/2003">
 <defs>
  <style type="text/css">
   <![CDATA[
    .fil0 {fill:#FEFEFE}
   ]]>
  </style>
 </defs>
 <g id="Capa_x0020_1">
  <metadata id="CorelCorpID_0Corel-Layer"/>
  <g id="_1856415212992">
   <path class="fil0" d="M0.75 1.1c0.01,-0.02 0.31,-0.33 0.34,-0.33 0.05,0 0.35,0.28 0.44,0.28 0.07,0 0.22,-0.11 0.39,-0.16 0.27,-0.09 0.2,-0.04 0.28,-0.47 0.03,-0.18 -0.05,-0.14 0.47,-0.14 0.08,0 0.04,0.48 0.18,0.56l0.27 0.09c0.21,0.09 0.24,0.18 0.41,0.06l0.32 -0.22c0.03,0 0.14,0.12 0.17,0.15 0.22,0.22 0.22,0.1 -0.06,0.5 -0.14,0.2 -0.02,0.16 0.1,0.53 0.02,0.05 0.02,0.1 0.05,0.14 0.02,0.05 0.05,0.06 0.11,0.08l0.39 0.07c0.03,0 0.06,0 0.06,0.04l0 0.43c0,0.03 -0.02,0.03 -0.05,0.04l-0.24 0.04c-0.11,0.02 -0.22,0.02 -0.26,0.1 -0.02,0.05 -0.03,0.09 -0.04,0.14 -0.01,0.04 -0.03,0.09 -0.05,0.13 -0.13,0.31 -0.19,0.19 0.03,0.51 0.03,0.05 0.13,0.17 0.14,0.21l-0.33 0.33c-0.07,-0.02 -0.37,-0.28 -0.44,-0.28 -0.12,0 -0.21,0.1 -0.42,0.16 -0.21,0.07 -0.2,0.03 -0.24,0.31l-0.04 0.23c-0,0.03 -0,0.06 -0.04,0.06 -0.5,0 -0.45,0.04 -0.47,-0.09 -0.01,-0.03 -0.01,-0.07 -0.02,-0.12 -0.07,-0.43 -0.02,-0.29 -0.39,-0.44 -0.22,-0.09 -0.21,-0.17 -0.38,-0.05 -0.41,0.29 -0.29,0.28 -0.5,0.08 -0.19,-0.19 -0.2,-0.15 -0.1,-0.28 0.05,-0.07 0.21,-0.27 0.21,-0.35 0,-0.06 -0.11,-0.23 -0.16,-0.38 -0.02,-0.05 -0.03,-0.1 -0.05,-0.14 -0.05,-0.12 -0.2,-0.11 -0.4,-0.14 -0.05,-0.01 -0.12,-0.02 -0.16,-0.02 -0.02,-0.08 -0.02,-0.41 0,-0.48l0.31 -0.05c0.33,-0.07 0.19,-0.05 0.34,-0.38 0.1,-0.22 0.16,-0.24 0.05,-0.38l-0.23 -0.34zm1.13 -0.49c-0.03,0 -0.14,0.05 -0.17,0.06 -0.05,0.02 -0.12,0.06 -0.17,0.08 -0.03,-0.02 -0.06,-0.05 -0.1,-0.07 -0.11,-0.08 -0.22,-0.19 -0.35,-0.19 -0.18,0 -0.28,0.15 -0.37,0.24 -0.14,0.14 -0.25,0.2 -0.25,0.41 0,0.09 0.07,0.18 0.11,0.23 0.02,0.04 0.05,0.07 0.07,0.1 0.03,0.04 0.05,0.07 0.07,0.11 -0.02,0.03 -0.04,0.07 -0.06,0.12 -0.08,0.17 -0.04,0.21 -0.13,0.22 -0.06,0.01 -0.1,0.02 -0.16,0.03 -0.1,0.02 -0.2,0.03 -0.27,0.08 -0.06,0.05 -0.12,0.13 -0.12,0.23l0 0.46c0,0.13 0.1,0.24 0.2,0.27l0.41 0.07c0,0.04 0.04,0.13 0.06,0.17 0.02,0.05 0.06,0.12 0.08,0.17l-0.15 0.2c-0.04,0.06 -0.12,0.14 -0.12,0.24 0,0.18 0.14,0.28 0.23,0.37 0.16,0.16 0.32,0.38 0.6,0.18 0.05,-0.04 0.1,-0.07 0.15,-0.11 0.03,-0.02 0.05,-0.03 0.07,-0.05 0.05,-0.04 0.09,0.01 0.18,0.05 0.03,0.01 0.07,0.02 0.1,0.04 0.09,0.03 0.07,0 0.1,0.16 0.03,0.17 0.05,0.47 0.33,0.47l0.46 0c0.12,0 0.21,-0.08 0.26,-0.16 0.04,-0.07 0.06,-0.25 0.07,-0.34 0.02,-0.12 0.01,-0.1 0.08,-0.12 0.05,-0.02 0.1,-0.04 0.15,-0.06 0.17,-0.08 0.11,-0.05 0.38,0.13 0.29,0.19 0.43,-0.03 0.65,-0.24 0.14,-0.14 0.17,-0.16 0.17,-0.34 0,-0.13 -0.25,-0.39 -0.25,-0.43l0.1 -0.25c0.04,-0.09 0.02,-0.09 0.08,-0.1 0.14,-0.03 0.35,-0.04 0.44,-0.11 0.06,-0.05 0.12,-0.13 0.12,-0.23l0 -0.48c0,-0.09 -0.07,-0.18 -0.13,-0.22 -0.08,-0.06 -0.29,-0.08 -0.42,-0.1 -0.06,-0.01 -0.05,-0 -0.08,-0.09 -0.03,-0.08 -0.1,-0.22 -0.11,-0.25 0.08,-0.13 0.26,-0.32 0.26,-0.45 0,-0.08 -0.04,-0.17 -0.08,-0.22 -0.05,-0.05 -0.1,-0.1 -0.16,-0.15 -0.14,-0.14 -0.31,-0.38 -0.58,-0.18 -0.03,0.02 -0.23,0.19 -0.28,0.18 -0.03,-0 -0.2,-0.1 -0.33,-0.13l-0.07 -0.4c-0.03,-0.1 -0.15,-0.2 -0.28,-0.2l-0.46 0c-0.13,0 -0.23,0.09 -0.27,0.2l-0.07 0.41z"/>
   <path class="fil0" d="M1.69 2.5c0,-0.28 0.11,-0.5 0.33,-0.66 0.03,-0.02 0.08,-0.05 0.11,-0.07 0.51,-0.25 1.13,0.14 1.13,0.67 0,0.29 -0.1,0.51 -0.33,0.68 -0.48,0.36 -1.24,0.02 -1.24,-0.62zm1.86 -0.02c0,-0.85 -0.98,-1.38 -1.68,-0.88 -0.5,0.35 -0.61,1.04 -0.24,1.53 0.43,0.57 1.29,0.57 1.73,-0.03 0.1,-0.14 0.2,-0.37 0.2,-0.61z"/>
  </g>
 </g>
</svg>
