<?xml version="1.0" encoding="UTF-8"?>
<!DOCTYPE svg PUBLIC "-//W3C//DTD SVG 1.1//EN" "http://www.w3.org/Graphics/SVG/1.1/DTD/svg11.dtd">
<!-- Creator: CorelDRAW 2019 (64-Bit) -->
<svg xmlns="http://www.w3.org/2000/svg" xml:space="preserve" width="9.8692mm" height="7.909mm" version="1.1" style="shape-rendering:geometricPrecision; text-rendering:geometricPrecision; image-rendering:optimizeQuality; fill-rule:evenodd; clip-rule:evenodd"
viewBox="0 0 41.83 33.52"
 xmlns:xlink="http://www.w3.org/1999/xlink"
 xmlns:xodm="http://www.corel.com/coreldraw/odm/2003">
 <defs>
  <style type="text/css">
   <![CDATA[
    .fil0 {fill:#A8CF45}
   ]]>
  </style>
 </defs>
 <g id="Capa_x0020_1">
  <metadata id="CorelCorpID_0Corel-Layer"/>
  <path class="fil0" d="M18.16 12.94c0,-1.43 1.23,-2.7 2.51,-2.7 0.96,0 1.53,0.1 2.25,0.84 1.71,1.76 0.26,4.67 -1.96,4.67 -1.54,0 -2.8,-1.25 -2.8,-2.8zm13.14 2.8c-0.2,0 -0.84,-0.15 -1.03,-0.23 -0.29,-0.11 -0.62,-0.33 -0.83,-0.52 -0.88,-0.79 -1.11,-2.24 -0.56,-3.31 1.34,-2.59 5.37,-1.47 5.16,1.41 -0.08,1.17 -0.69,1.99 -1.65,2.4 -0.21,0.09 -0.85,0.26 -1.09,0.26zm-21.06 -5.51c0.93,0 1.51,0.1 2.18,0.72 2.12,1.96 -0.04,5.76 -2.98,4.53 -1.67,-0.7 -2.2,-2.76 -0.99,-4.34 0.29,-0.38 1.17,-0.91 1.8,-0.91zm-10.24 -5.8l0 19.22c0,1.1 1.1,2.08 1.82,2.53 0.85,0.54 2.06,1.04 3.3,1.14l-1.64 6.18c0.37,-0.03 0.7,-0.32 0.97,-0.48l8.59 -5.03c1.04,-0.6 0.68,-0.67 2.32,-0.67l21.15 0c2.58,0.01 5.31,-1.4 5.31,-3.77l0 -19.03c0,-2.23 -2.72,-4.54 -4.83,-4.54l-31.59 0c-2.17,0 -5.41,2.46 -5.41,4.44z"/>
 </g>
</svg>
