<?xml version="1.0" encoding="UTF-8"?>
<!DOCTYPE svg PUBLIC "-//W3C//DTD SVG 1.1//EN" "http://www.w3.org/Graphics/SVG/1.1/DTD/svg11.dtd">
<!-- Creator: CorelDRAW 2019 (64-Bit) -->
<svg xmlns="http://www.w3.org/2000/svg" xml:space="preserve" width="5.1321mm" height="4.1127mm" version="1.1" style="shape-rendering:geometricPrecision; text-rendering:geometricPrecision; image-rendering:optimizeQuality; fill-rule:evenodd; clip-rule:evenodd"
viewBox="0 0 2065.44 1655.17"
 xmlns:xlink="http://www.w3.org/1999/xlink"
 xmlns:xodm="http://www.corel.com/coreldraw/odm/2003">
 <defs>
  <style type="text/css">
   <![CDATA[
    .fil0 {fill:#FEFEFE}
   ]]>
  </style>
 </defs>
 <g id="Capa_x0020_1">
  <metadata id="CorelCorpID_0Corel-Layer"/>
  <path class="fil0" d="M896.79 639.18c0,-70.43 60.77,-133.53 124,-133.53 47.21,0 75.54,4.91 111.12,41.49 84.6,87.09 12.72,230.36 -96.79,230.36 -76.1,0 -138.32,-61.74 -138.32,-138.32zm648.72 138.32c-9.98,0 -41.25,-7.57 -50.71,-11.27 -14.41,-5.63 -30.71,-16.26 -41.21,-25.6 -43.63,-38.8 -54.98,-110.63 -27.53,-163.68 66.12,-127.9 265.26,-72.64 255,69.42 -4.19,57.63 -33.89,98.44 -81.5,118.4 -10.54,4.39 -42.02,12.72 -54.05,12.72zm-1039.86 -271.86c45.8,0 74.74,5.11 107.58,35.5 104.56,96.75 -1.81,284.58 -147.34,223.64 -82.3,-34.49 -108.46,-136.07 -49.1,-214.43 14.21,-18.71 57.83,-44.71 88.86,-44.71zm-505.64 -286.23l0 949.23c0,54.21 54.21,102.55 89.63,125.04 42.14,26.68 101.98,51.15 163.2,56.22l-81.09 305.3c18.47,-1.53 34.57,-15.94 47.93,-23.62l424.07 -248.52c51.35,-29.38 33.48,-33.24 114.7,-33.16l1044.65 0.04c127.18,0.28 262.36,-69.34 262.36,-186.05l0 -939.69c0,-110.27 -134.46,-224.21 -238.49,-224.21l-1559.83 0c-107.17,0 -267.11,121.46 -267.11,219.42z"/>
 </g>
</svg>
