<?xml version="1.0" encoding="UTF-8"?>
<!DOCTYPE svg PUBLIC "-//W3C//DTD SVG 1.1//EN" "http://www.w3.org/Graphics/SVG/1.1/DTD/svg11.dtd">
<!-- Creator: CorelDRAW 2019 (64-Bit) -->
<svg xmlns="http://www.w3.org/2000/svg" xml:space="preserve" width="4.0385mm" height="4.0386mm" version="1.1" style="shape-rendering:geometricPrecision; text-rendering:geometricPrecision; image-rendering:optimizeQuality; fill-rule:evenodd; clip-rule:evenodd"
viewBox="0 0 15.37 15.37"
 xmlns:xlink="http://www.w3.org/1999/xlink"
 xmlns:xodm="http://www.corel.com/coreldraw/odm/2003">
 <defs>
  <style type="text/css">
   <![CDATA[
    .fil1 {fill:#FEFEFE}
    .fil0 {fill:#A8CF45}
   ]]>
  </style>
 </defs>
 <g id="Capa_x0020_1">
  <metadata id="CorelCorpID_0Corel-Layer"/>
  <circle class="fil0" cx="7.69" cy="7.69" r="7.69"/>
  <g id="_1856454740288">
   <path class="fil1" d="M4.18 7.69c0.07,-0.11 0.29,-0.32 0.35,-0.4 0.12,-0.16 0.58,-0.58 0.78,-0.74 0.07,-0.06 0.13,-0.11 0.21,-0.16 0.08,-0.06 0.14,-0.1 0.23,-0.16 0.18,-0.13 0.51,-0.33 0.71,-0.43 0.05,-0.02 0.09,-0.04 0.14,-0.06 0.05,-0.02 0.07,-0.04 0.13,-0.06 0.92,-0.37 1.66,-0.37 2.58,-0 0.51,0.2 0.99,0.53 1.41,0.87 0.14,0.11 0.27,0.23 0.4,0.36 0.13,0.13 0.21,0.17 0.38,0.38 0.06,0.07 0.12,0.12 0.18,0.19 0.05,0.07 0.13,0.14 0.18,0.21 -0.18,0.27 -0.86,0.92 -1.14,1.14 -1.14,0.9 -2.5,1.53 -3.98,0.87 -0.65,-0.29 -1.07,-0.56 -1.61,-1.04l-0.76 -0.75c-0.05,-0.07 -0.13,-0.14 -0.18,-0.21zm8.35 -0.04l0 0.08c-0.01,0.08 -0.07,0.16 -0.16,0.28l-0.63 0.71c-0.05,0.05 -0.08,0.06 -0.12,0.11 -0.04,0.04 -0.07,0.07 -0.11,0.11l-0.23 0.21c-0.68,0.57 -1.43,1.07 -2.3,1.3 -0.51,0.13 -0.65,0.12 -1.15,0.12 -1.1,0 -2.52,-0.85 -3.32,-1.65 -0.14,-0.14 -0.17,-0.14 -0.29,-0.28 -0.09,-0.1 -0.28,-0.28 -0.37,-0.4 -0.15,-0.19 -0.35,-0.35 -0.35,-0.56 0,-0.12 0.08,-0.2 0.16,-0.3l0.31 -0.36c0.09,-0.11 0.57,-0.6 0.68,-0.68 0.05,-0.04 0.07,-0.06 0.11,-0.1 0.37,-0.31 0.63,-0.51 1.04,-0.76 1.01,-0.61 2.02,-0.83 3.19,-0.54 0.79,0.2 1.69,0.76 2.3,1.3 0.08,0.08 0.16,0.14 0.24,0.22l0.86 0.93c0.09,0.11 0.14,0.19 0.15,0.27z"/>
   <path class="fil1" d="M6.83 7.76c0,-0.41 0.11,-0.71 0.41,-0.97l0.25 -0.17c0.8,-0.4 1.7,0.25 1.7,1 0,0.37 -0.1,0.68 -0.34,0.91 -0.29,0.26 -0.52,0.34 -0.91,0.34 -0.29,0 -0.62,-0.19 -0.77,-0.34 -0.18,-0.2 -0.34,-0.47 -0.34,-0.77zm1.11 -1.85c-0.05,0.01 -0.16,-0.02 -0.39,0.05 -0.13,0.04 -0.22,0.07 -0.33,0.13 -0.22,0.11 -0.35,0.22 -0.52,0.38 -0.5,0.5 -0.63,1.36 -0.3,2.02 0.1,0.21 0.22,0.36 0.38,0.52l0.25 0.19c0.1,0.06 0.19,0.11 0.3,0.16 0.15,0.06 0.53,0.16 0.75,0.13 0.07,-0.01 0.13,-0 0.19,-0.02 0.07,-0.01 0.14,-0.03 0.19,-0.04 0.32,-0.08 0.63,-0.29 0.85,-0.51 0.36,-0.37 0.56,-0.99 0.46,-1.5 -0.01,-0.07 -0.03,-0.14 -0.04,-0.19 -0.04,-0.13 -0.07,-0.22 -0.13,-0.33 -0.05,-0.1 -0.1,-0.18 -0.17,-0.27 -0.08,-0.11 -0.12,-0.15 -0.21,-0.24 -0.13,-0.13 -0.37,-0.28 -0.55,-0.35 -0.2,-0.08 -0.62,-0.16 -0.73,-0.13 -0,0 -0.01,0 -0.01,0.01z"/>
  </g>
 </g>
</svg>
